<svg width="75" height="75" viewBox="0 0 75 75" fill="none" xmlns="http://www.w3.org/2000/svg">
<circle cx="37.5" cy="37.5" r="37.5"/>
<path d="M54.9165 36.3453H40.4165V24.1569C40.4165 23.6181 40.1619 23.1014 39.7087 22.7205C39.2555 22.3395 38.6408 22.1255 37.9998 22.1255C37.3589 22.1255 36.7442 22.3395 36.291 22.7205C35.8378 23.1014 35.5832 23.6181 35.5832 24.1569V36.3453H21.0832C20.4422 36.3453 19.8275 36.5593 19.3743 36.9403C18.9211 37.3212 18.6665 37.8379 18.6665 38.3767C18.6665 38.9155 18.9211 39.4322 19.3743 39.8131C19.8275 40.1941 20.4422 40.4081 21.0832 40.4081H35.5832V52.5965C35.5832 53.1353 35.8378 53.652 36.291 54.0329C36.7442 54.4139 37.3589 54.6279 37.9998 54.6279C38.6408 54.6279 39.2555 54.4139 39.7087 54.0329C40.1619 53.652 40.4165 53.1353 40.4165 52.5965V40.4081H54.9165C55.5574 40.4081 56.1721 40.1941 56.6254 39.8131C57.0786 39.4322 57.3332 38.9155 57.3332 38.3767C57.3332 37.8379 57.0786 37.3212 56.6254 36.9403C56.1721 36.5593 55.5574 36.3453 54.9165 36.3453Z" fill="white"/>
</svg>
