<svg width="54" height="48" viewBox="0 0 54 48" fill="none" xmlns="http://www.w3.org/2000/svg">
<path d="M39.5 39.7143H14.5M52 19.2857C52 25.3619 47.1042 30.2857 41.0625 30.2857C40.5312 30.2857 40.0104 30.2438 39.5 30.1705V46H14.5V30.1705C13.9896 30.2438 13.4687 30.2857 12.9375 30.2857C6.89583 30.2857 2 25.3619 2 19.2857C2 13.2095 6.89583 8.28571 12.9375 8.28571C13.9792 8.28571 14.9861 8.43587 15.941 8.70825C18.0382 4.72032 22.2014 2 27 2C31.7986 2 35.9618 4.72032 38.059 8.70825C39.0139 8.43587 40.0208 8.28571 41.0625 8.28571C47.1042 8.28571 52 13.2095 52 19.2857Z" stroke="black" stroke-width="3" stroke-linejoin="round"/>
</svg>
