<svg width="44" height="39" viewBox="0 0 44 39" fill="none" xmlns="http://www.w3.org/2000/svg">
<path d="M32.5 32.7143H11.5M43 15.5357C43 20.6452 38.8875 24.7857 33.8125 24.7857C33.3662 24.7857 32.9287 24.7505 32.5 24.6888V38H11.5V24.6888C11.0712 24.7505 10.6337 24.7857 10.1875 24.7857C5.1125 24.7857 1 20.6452 1 15.5357C1 10.4262 5.1125 6.28571 10.1875 6.28571C11.0625 6.28571 11.9083 6.41198 12.7104 6.64103C14.4721 3.28754 17.9692 1 22 1C26.0308 1 29.5279 3.28754 31.2896 6.64103C32.0917 6.41198 32.9375 6.28571 33.8125 6.28571C38.8875 6.28571 43 10.4262 43 15.5357Z" stroke="black" stroke-width="2" stroke-linejoin="round"/>
</svg>
