<svg width="32" height="38" viewBox="0 0 32 38" fill="none" xmlns="http://www.w3.org/2000/svg">
<path d="M22.9871 9.76089L22.9537 9.80068M12.4405 22.3484L12.4138 22.3882M6.04315 29.9885L1 36.0104M16.5897 17.4076L15.8293 18.3096M30.3317 1L26.3759 5.72863M21.3661 8.85894C18.7444 7.99014 15.9093 9.39613 15.0354 12.0025C14.1616 14.6089 15.5758 17.4275 18.1974 18.2963C20.8191 19.1651 23.6542 17.7591 24.528 15.1527C25.4019 12.5463 23.9877 9.72773 21.3661 8.85894ZM30.3917 12.4137C31.3256 11.2796 31.1522 9.60835 30.0115 8.67987L22.8003 2.81717C21.6596 1.88869 19.9785 2.06112 19.0446 3.1952C18.1107 4.32927 18.2841 6.00054 19.4248 6.92902L26.636 12.7917C27.7767 13.7202 29.4578 13.5478 30.3917 12.4137ZM10.8128 21.4399C8.19116 20.5711 5.35606 21.9771 4.48218 24.5834C3.6083 27.1898 5.02251 30.0084 7.64415 30.8772C10.2658 31.746 13.1009 30.34 13.9748 27.7336C14.8487 25.1273 13.4344 22.3087 10.8128 21.4399ZM19.8384 24.9946C20.7724 23.8605 20.5989 22.1893 19.4582 21.2608L12.247 15.3981C11.1063 14.4696 9.42527 14.6421 8.49135 15.7761C7.55743 16.9102 7.73087 18.5815 8.87159 19.5099L16.0828 25.3726C17.2235 26.3011 18.9045 26.1287 19.8384 24.9946Z" stroke="black" stroke-width="2" stroke-linecap="round" stroke-linejoin="round"/>
</svg>
