<svg width="31" height="42" viewBox="0 0 31 42" fill="none" xmlns="http://www.w3.org/2000/svg">
<path d="M25.0611 30.7384C29.6236 32.7975 30.0252 21.0911 29.9989 16.2979C29.9989 15.211 29.1364 14.3266 28.0698 14.3266H25.0611M7.28492 17.3646V33.4861M13.421 17.189V33.3106M19.1357 17.2025V33.3241M25.0611 11.2954C26.7662 8.6827 25.0611 3.8692 22.4276 4.5443C21.7626 4.5443 20.9528 5.34768 20.4524 5.89451C20.2154 3.68017 18.5036 1.9654 16.4232 1.9654C15.7845 1.9654 15.1854 2.12743 14.6456 2.42447C13.7436 1.53333 12.5519 1 11.2418 1C8.5885 1 6.40928 3.2076 6.13935 6.02954C4.84235 4.73333 3.19641 4.40928 2.07059 5.36118C0.681413 6.54262 0.64191 9.25654 1.96525 11.4169C1.97183 11.4304 1.985 11.4506 1.99816 11.4641M18.8657 41H7.54827C4.1313 41 1.35296 38.1578 1.35296 34.6473V11.2954H25.0545V34.6473C25.0545 38.1511 22.2827 41 18.8592 41H18.8657Z" stroke="black" stroke-width="2" stroke-linecap="round" stroke-linejoin="round"/>
</svg>
