<svg width="36" height="39" viewBox="0 0 36 39" fill="none" xmlns="http://www.w3.org/2000/svg">
<path d="M35 4.24555C29.2329 3.59774 25.7599 11.7537 25.7599 11.7537M28.0411 7.97697C28.0411 7.97697 29.8737 2.94344 26.6698 1M34.3592 10.0694C31.7961 8.12596 27.6182 9.00052 27.6182 9.00052M21.5435 23.7707L18.9804 21.0823M10.8104 21.458L13.2133 23.6735M12.2842 31.8619L10.5348 32.0562L9.04822 30.4756M20.7041 15.2455L18.141 12.557M1.30755 34.045L18.833 10.0694C19.9992 8.47578 22.6521 8.70252 24.5424 10.5617L27.5285 13.4899C29.4188 15.3491 29.7263 18.0181 28.1821 19.2425L4.98565 37.6599C4.2103 38.2753 2.89669 38.0356 1.94833 37.1027C0.999969 36.1699 0.718023 34.8483 1.30755 34.045Z" stroke="black" stroke-width="2" stroke-linecap="round" stroke-linejoin="round"/>
</svg>
