<svg width="42" height="36" viewBox="0 0 42 36" fill="none" xmlns="http://www.w3.org/2000/svg">
<path d="M35.7542 29.2357C39.0945 27.21 41.3566 24.2161 40.9536 22.1805C40.6362 20.5768 38.7872 21.3911 36.3235 22.7117M5.67648 22.1557C3.21787 20.9244 1.36887 20.1598 1.04643 21.6592C0.643374 23.5607 2.9055 26.356 6.24579 28.2477M35.7643 16.8233H6.6035C5.92839 16.8233 5.40442 17.29 5.47999 17.8262L7.04686 28.913C7.54059 32.4182 10.2713 35 13.4705 35H28.8923C32.0965 35 34.8221 32.4182 35.3159 28.913L36.8828 17.8262C36.9583 17.29 36.4344 16.8233 35.7592 16.8233H35.7643ZM35.9809 7.25088C35.86 5.74153 34.5249 4.61449 32.9933 4.73364L7.81769 6.66005C6.2861 6.77921 5.14244 8.09492 5.26335 9.60426L5.48503 12.3846L36.2076 10.0312L35.986 7.25088H35.9809ZM22.6903 5.45356L17.6673 5.83586L17.3146 1.3823L22.3376 1L22.6903 5.45356Z" stroke="black" stroke-width="2" stroke-linecap="round" stroke-linejoin="round"/>
</svg>
