<svg width="34" height="44" viewBox="0 0 34 44" fill="none" xmlns="http://www.w3.org/2000/svg">
<path d="M28.5665 24.6801C28.6247 24.8988 28.6364 25.1233 28.5956 25.3597L25.6691 41.7058C25.5353 42.4563 24.8895 43 24.1389 43H9.86109C9.11054 43 8.46473 42.4563 8.33091 41.7058L5.40436 25.3597C5.36364 25.1233 5.37527 24.8988 5.43345 24.6801M13.8116 10.1542C9.09891 10.9106 5.65455 13.2922 5.65455 16.1111C5.65455 16.4125 5.69527 16.708 5.77091 16.9976H4.78182C3.73455 16.9976 2.792 17.429 2.10545 18.1204C1.42473 18.8177 1 19.7751 1 20.8388C1 22.9604 2.69309 24.6801 4.78182 24.6801H29.2182C30.2655 24.6801 31.208 24.2487 31.8945 23.5573C32.5753 22.8599 33 21.9026 33 20.8388C33 18.7173 31.3069 16.9976 29.2182 16.9976H28.2291C28.3047 16.708 28.3455 16.4125 28.3455 16.1111C28.3455 13.4045 25.1804 11.1057 20.7644 10.2606M17.2909 6.36022C15.3651 6.36022 13.8 7.94991 13.8 9.906C13.8 11.8621 15.3651 13.4518 17.2909 13.4518C19.2167 13.4518 20.7818 11.8621 20.7818 9.906C20.7818 7.94991 19.2167 6.36022 17.2909 6.36022ZM17.2909 6.36022C17.2909 6.36022 18.4545 0.450578 21.9455 1.04154M10.3091 28.2259L12.0545 39.4542M22.2538 39.2474L23.9993 28.0191M17 28.0191V39.2474" stroke="black" stroke-width="2" stroke-linecap="round" stroke-linejoin="round"/>
</svg>
