<svg width="43" height="30" viewBox="0 0 43 30" fill="none" xmlns="http://www.w3.org/2000/svg">
<path d="M37.9913 23.149C32.0876 27.9596 20.2801 27.9596 20.2801 27.9596C20.2801 27.9596 12.0149 30.9663 9.06299 26.757C6.11112 22.5477 10.2437 23.149 10.8341 18.9397C11.4245 14.7304 2.56888 12.3251 2.56888 12.3251C2.56888 12.3251 -4.5156 9.91973 11.4245 2.70377C27.3646 -4.51219 41.5335 13.5277 41.5335 13.5277C41.5335 13.5277 43.895 18.3384 37.9913 23.149ZM33.2152 14.4057C32.9259 12.0063 29.4368 10.4669 25.4163 10.966C21.3959 11.4651 18.3732 13.8164 18.6566 16.2157C18.9399 18.615 22.435 20.1544 26.4554 19.6553C30.4758 19.1562 33.4986 16.805 33.2152 14.4057Z" stroke="black" stroke-width="2" stroke-linecap="round" stroke-linejoin="round"/>
</svg>
