<svg width="42" height="29" viewBox="0 0 42 29" fill="none" xmlns="http://www.w3.org/2000/svg">
<path d="M20.312 5.45491V1C20.312 1 12.3277 2.19639 10.5172 6.11022M10.5172 22.8898C12.3277 26.8036 20.312 28 20.312 28V23.5451M7.6385 12.7234C7.6385 13.0541 7.36693 13.3246 7.035 13.3246C6.70308 13.3246 6.4315 13.0541 6.4315 12.7234C6.4315 12.3928 6.70308 12.1222 7.035 12.1222C7.36693 12.1222 7.6385 12.3928 7.6385 12.7234ZM30.2517 17.8337C28.1334 21.1703 22.5932 23.5451 16.0875 23.5451C7.75317 23.5451 1 19.6433 1 14.8277C1 10.012 7.75317 6.11022 16.0875 6.11022C22.2794 6.11022 27.6023 8.26253 29.9258 11.3527C32.038 8.82766 36.522 7.01804 41 7.01804L35.5685 14.0942L41 21.4469C36.7514 21.4469 32.4906 20.016 30.2517 17.8337Z" stroke="black" stroke-width="2" stroke-linecap="round" stroke-linejoin="round"/>
</svg>
