<svg width="35" height="38" viewBox="0 0 35 38" fill="none" xmlns="http://www.w3.org/2000/svg">
<path d="M17.3554 9.97126C15.1791 9.53939 12.5288 9.202 10.3953 9.35045C4.65365 9.74633 0.467161 16.2559 1.05507 23.8855C1.64298 31.5152 6.77772 37.377 12.5193 36.9811C14.2594 36.8596 14.321 36.3198 17.6398 34.9702C20.0104 35.8699 20.7596 36.8011 22.4806 36.9181C28.227 37.3185 33.357 31.4522 33.9449 23.8226C34.5328 16.1929 30.351 9.68785 24.6047 9.28747C22.3811 9.13452 19.5885 9.5079 17.3554 9.97126ZM17.3554 9.97126C17.3554 9.97126 15.7434 5.72905 21.9069 1.68028M13.6999 2.44055C11.3388 1.50933 7.029 0.515131 6.70186 1.2619C6.37471 2.00868 10.1535 4.20851 12.5098 5.13973C14.8662 6.07095 17.0424 6.2194 17.3696 5.47713C17.6967 4.73485 16.0515 3.37176 13.6951 2.44055H13.6999Z" stroke="black" stroke-width="2" stroke-linecap="round" stroke-linejoin="round"/>
</svg>
