<svg width="31" height="39" viewBox="0 0 31 39" fill="none" xmlns="http://www.w3.org/2000/svg">
<path d="M18.1838 6.58938C17.4376 4.55653 15.481 3.10774 13.1817 3.10774C10.2352 3.10774 7.85219 5.48193 7.85219 8.41743C7.85219 8.76636 7.88265 9.10011 7.95117 9.42627M7.95117 9.42627C8.31662 11.3453 9.71751 12.8927 11.56 13.4768M7.95117 9.42627C7.44106 9.26698 6.9005 9.17596 6.32948 9.17596C3.38304 9.17596 1 11.5502 1 14.4857C1 16.7233 2.38567 18.6424 4.35757 19.4161M11.56 13.4768C12.0701 13.6361 12.6107 13.7271 13.1817 13.7271C14.4684 13.7271 15.6409 13.2796 16.5545 12.5211M11.56 13.4768C11.6133 13.7271 11.6437 13.985 11.6437 14.2505M19.0441 17.4894C18.3741 15.3124 16.3489 13.7271 13.943 13.7271C13.1132 13.7271 12.3366 13.9092 11.6437 14.2505M19.0441 17.4894C19.341 16.8598 19.7674 16.2985 20.2851 15.8434M19.0441 17.4894C18.7015 18.1873 18.5112 18.9685 18.5112 19.7953C18.5112 20.3339 18.5949 20.8573 18.7396 21.3427M11.6437 14.2505C9.84694 15.1001 8.61355 16.9205 8.61355 19.0368C8.61355 19.1127 8.61355 19.1961 8.62877 19.272M8.62877 19.272C8.62116 19.3706 8.62877 19.4692 8.644 19.5678M8.62877 19.272C8.52218 19.3326 8.41559 19.3782 8.30139 19.4161M8.644 19.5678C8.82673 21.4489 9.9916 23.0343 11.6285 23.8155M8.644 19.5678C8.5298 19.5071 8.41559 19.454 8.30139 19.4161M11.6285 23.8155C11.8417 23.9293 12.0625 24.0128 12.2985 24.0886M11.6285 23.8155C11.6514 23.99 11.659 24.1645 11.659 24.3465C11.659 25.545 11.2631 26.6373 10.5931 27.5247M12.2985 24.0886C12.8162 24.2555 13.3644 24.3465 13.943 24.3465C15.9682 24.3465 17.727 23.2239 18.633 21.5703M12.2985 24.0886C11.8874 24.8396 11.659 25.7043 11.659 26.6221C11.659 27.0924 11.7199 27.5475 11.8417 27.9799M18.633 21.5703C18.671 21.4944 18.7091 21.4186 18.7396 21.3427M18.633 21.5703C18.7091 21.5931 18.7776 21.6158 18.8462 21.6462M18.7396 21.3427C18.77 21.4489 18.8081 21.5475 18.8462 21.6462M18.8462 21.6462C19.3791 23.0949 20.5287 24.2403 21.9829 24.7713M21.9829 24.7713C22.2037 25.3478 22.3179 25.9698 22.3179 26.6221C22.3179 29.5576 19.9349 31.9318 16.9884 31.9318C16.0977 31.9318 15.2602 31.7118 14.5217 31.3325M21.9829 24.7713C22.5616 24.9913 23.1859 25.105 23.8406 25.105C26.7871 25.105 29.1701 22.7308 29.1701 19.7953C29.1701 17.2998 27.4418 15.2063 25.1121 14.6449M14.5217 31.3325C13.2121 30.6499 12.2224 29.4362 11.8417 27.9799M14.5217 31.3325C14.6435 31.7649 14.7044 32.22 14.7044 32.6903C14.7044 35.6258 12.3213 38 9.3749 38C6.42846 38 4.04542 35.6258 4.04542 32.6903C4.04542 31.4918 4.44132 30.3996 5.11132 29.5121M11.8417 27.9799C11.4534 27.7751 11.0347 27.6233 10.5931 27.5247M8.30139 19.4161C7.69231 19.1658 7.02993 19.0368 6.32948 19.0368C5.62904 19.0368 4.96666 19.1658 4.35757 19.4161M4.35757 19.4161C2.38567 20.1898 1 22.1089 1 24.3465C1 26.8648 2.75112 28.9735 5.11132 29.5121M10.5931 27.5247C10.2048 27.4261 9.79365 27.3806 9.3749 27.3806C7.62379 27.3806 6.07824 28.215 5.11132 29.5121M17.9782 4.51102C23.3077 -0.533189 30 1.34037 30 1.34037M26.8861 10.693C26.8861 13.6285 24.503 16.0027 21.5566 16.0027C18.6101 16.0027 16.2271 13.6285 16.2271 10.693C16.2271 8.49329 17.5671 6.60455 19.4857 5.80051C20.1252 5.53503 20.8257 5.38332 21.5566 5.38332C24.503 5.38332 26.8861 7.75751 26.8861 10.693Z" stroke="black" stroke-width="2" stroke-linecap="round" stroke-linejoin="round"/>
</svg>
