<?xml version="1.0" encoding="utf-8"?>
<!-- Generator: Adobe Illustrator 27.9.0, SVG Export Plug-In . SVG Version: 6.00 Build 0)  -->
<svg version="1.1" id="Layer_1" xmlns="http://www.w3.org/2000/svg" xmlns:xlink="http://www.w3.org/1999/xlink" x="0px" y="0px"
	 viewBox="0 0 332.5 250.8" style="enable-background:new 0 0 332.5 250.8;" xml:space="preserve">
<style type="text/css">
	.st0{fill:#EF960A;}
	.st1{fill:#9D082B;}
	.st2{fill:#2F4836;}
	.st3{fill:#F1DDBA;}
	.st4{stroke:#000000;stroke-width:2;stroke-miterlimit:10;}
	.st5{fill-rule:evenodd;clip-rule:evenodd;fill:#F1DDBA;}
	.st6{fill:#D4D3D3;}
	.st7{fill-rule:evenodd;clip-rule:evenodd;fill:#FFFFFF;}
	.st8{fill-rule:evenodd;clip-rule:evenodd;fill:#FFAA67;}
	.st9{fill:none;stroke:#000000;stroke-width:2;stroke-linecap:round;stroke-miterlimit:10;}
	.st10{fill:#FFFFFF;}
	.st11{fill:#254934;}
</style>
<path class="st0" d="M332.5,168.2c0,30.2-7.9,58.6-21.7,83.1H21.7C7.9,226.7,0,198.4,0,168.1C0,75.3,74.4,0,166.3,0
	C258.1,0,332.5,75.3,332.5,168.2z"/>
<g>
	
		<ellipse transform="matrix(0.9999 -1.719918e-02 1.719918e-02 0.9999 -4.1118 4.2471)" class="st1" cx="244.9" cy="241.2" rx="11.3" ry="8.5"/>
	<path class="st2" d="M245.8,237.5c-0.2-0.1,1.2-2.6,3.7-4.5c1.8-1.5,2.9-1.7,3.8-1.5c0.6,0.1,1.3,0.4,1.3,0.7
		c0,0.4-1.1,0.6-2.9,1.5c0,0-0.8,0.4-1.9,1C247.1,236.1,246,237.6,245.8,237.5z"/>
	<path class="st2" d="M245.7,238c-0.1-0.3,2.7-1.7,6-2.2c2.5-0.4,3.5,0,4.2,0.6c0.4,0.4,0.9,1,0.7,1.3c-0.2,0.4-1.3,0-3.4-0.2
		c0,0-0.9-0.1-2.3-0.1C247.6,237.3,245.8,238.2,245.7,238z"/>
	<path class="st2" d="M245.6,238c0.3,0,0.1-2.7-1-5.4c-0.8-2-1.6-2.7-2.4-2.9c-0.5-0.2-1.2-0.3-1.4,0c-0.2,0.3,0.6,1,1.8,2.5
		c0,0,0.5,0.6,1.1,1.7C245.2,236.2,245.4,238,245.6,238z"/>
	<path class="st2" d="M245.8,237.8c0.1-0.2-2.9-1.8-6.4-2.6c-2.5-0.5-3.5-0.3-4,0.2c-0.4,0.3-0.7,0.9-0.5,1.2
		c0.3,0.4,1.3,0.1,3.3,0.1c0,0,0.9,0,2.3,0.1C243.8,237.1,245.8,238,245.8,237.8z"/>
</g>
<g>
	
		<ellipse transform="matrix(0.9654 -0.2607 0.2607 0.9654 -54.6569 67.0121)" class="st1" cx="225.3" cy="239.5" rx="11.3" ry="8.4"/>
	<path class="st2" d="M225.3,235.7c-0.3-0.1,0.5-2.8,2.5-5.3c1.4-1.9,2.4-2.3,3.3-2.4c0.6,0,1.3,0,1.4,0.3c0.1,0.4-0.9,0.8-2.5,2.1
		c0,0-0.7,0.5-1.6,1.5C226.2,234.1,225.6,235.8,225.3,235.7z"/>
	<path class="st2" d="M225.3,236.2c-0.2-0.2,2.2-2.3,5.3-3.6c2.3-1,3.4-0.9,4.2-0.5c0.5,0.3,1.1,0.8,1,1.1c-0.1,0.4-1.3,0.3-3.4,0.6
		c0,0-0.9,0.1-2.3,0.5C227,235.1,225.4,236.4,225.3,236.2z"/>
	<path class="st2" d="M225.2,236.2c0.2-0.1-0.5-2.6-2.3-5c-1.3-1.8-2.2-2.2-3.1-2.3c-0.5,0-1.2,0-1.3,0.3c-0.1,0.4,0.8,0.8,2.3,2
		c0,0,0.6,0.5,1.5,1.4C224.4,234.7,225,236.3,225.2,236.2z"/>
	<path class="st2" d="M225.4,236c0-0.2-3.3-1.1-6.8-1c-2.6,0.1-3.4,0.6-3.9,1.2c-0.3,0.4-0.4,1-0.1,1.3c0.4,0.3,1.3-0.2,3.2-0.8
		c0,0,0.9-0.2,2.2-0.5C223.3,235.8,225.4,236.2,225.4,236z"/>
</g>
<path class="st3" d="M61.8,139c1.3,0.1,3.6,0.5,5.4,2.2c2.9,2.6,3.1,6.4,3.2,8.7c0.1,2.8-0.5,5.1-0.9,6.4l7.7,6.5l-7.1,10.8
	c0,0-2.2-2.3-5.1-4.7c-3.5-3-6-3.5-8.9-5.1c-3.4-1.9-10.4-5.8-11.6-11.6c-1.4-7,6.1-13.5,7.1-14.4c1.3,0.2,2.6,0.4,3.9,0.6
	c0,0-6.3,5.2-5.5,9.7c0.8,4.5,4.7,4.8,4.7,4.8s2.4,0.6,5.6-0.7s3.9-3.6,3.4-6.3c-0.6-2.6-3.6-5.1-5-6.5c-0.1-0.1-0.2-0.2-0.2-0.3
	C58.6,138.9,60.1,138.9,61.8,139z"/>
<path class="st3" d="M260.3,171.4c-0.1-0.1,3.5-3.6,3.8-3.9c1.6-1.5,3.3-2.9,5.3-4c1.9-1,4-1.6,6-2.5c3.8-1.8,8.3-5.5,9.8-9.6
	c0.6-1.8-35.9-0.6-36-0.6c0,0,0.6,2,0.7,2.2c0.5,1.1,1.2,2,2,2.9c0.9,0.9,1.9,1.7,2.9,2.4c0.8,0.5,2.9,0.9,3.3,1.6
	c-1,0.8-2,1.5-3,2.2c-0.9,0.6-1.2,0.5-0.8,1.4c0.5,1,1.6,2.1,2.3,3C257.8,168,259.1,169.7,260.3,171.4z"/>
<rect x="151.9" y="154.6" class="st3" width="24.7" height="8.6"/>
<path class="st4" d="M141.4,111c-2.3-0.2-3.1,9.3-6.8,9.7c-2,0.2-3.4-2.5-4.2-2c-1.1,0.6,0.3,6.6,3.9,7.6c0.9,0.2,1.6,0.1,2.9-0.2
	c2.2-0.6,10-2.6,10-6.5c0-1.7-1.4-2.2-2.9-5.7c-0.1-0.3-0.5-1.1-1.3-1.8C142.6,111.7,142,111,141.4,111z"/>
<path class="st4" d="M185.6,111.1c2.3-0.2,3.1,9.3,6.8,9.7c2,0.2,3.4-2.5,4.2-2c1.1,0.6-0.3,6.6-3.9,7.6c-0.9,0.2-1.6,0.1-2.9-0.2
	c-2.2-0.6-10-2.6-10-6.5c0-1.7,1.4-2.2,2.9-5.7c0.1-0.3,0.5-1.1,1.3-1.8C184.4,111.7,185,111.1,185.6,111.1z"/>
<path class="st5" d="M135.9,124.7c-0.3,3.5,0.6,6.4,2.1,6.5s3-2.6,3.3-6s-0.6-6.4-2.1-6.5c-1.2-0.1-2.6,2.4-3.1,4.3
	C136.1,123.3,136,123.9,135.9,124.7z"/>
<path class="st5" d="M191.9,124.7c0.3,3.5-0.6,6.4-2.1,6.5s-3-2.6-3.3-6s0.6-6.4,2.1-6.5c1.2-0.1,2.6,2.4,3.1,4.3
	C191.8,123.3,191.9,123.9,191.9,124.7z"/>
<path class="st3" d="M139.1,132.6c0-16.1,10.1-32.1,24.7-32.1s25.2,17.2,25.2,33.3s-10.6,23-25.2,23
	C149.2,156.8,139.1,148.7,139.1,132.6z"/>
<g>
	<rect x="62.9" y="244.5" class="st6" width="38" height="3.5"/>
	<path class="st6" d="M119.2,213.8c3.6-1.2,6.2-1.9,6.7-0.5c0.6,1.9-2.7,4.6-7.5,6.4"/>
	<path class="st6" d="M45.4,219.8c-4.8-1.8-8.1-4.6-7.5-6.4c0.5-1.5,3.1-0.7,6.7,0.5"/>
	<path class="st6" d="M118.2,198.6H94.9H68.9H45.6c-1.7,0-3,1.2-2.8,2.5l3.9,28c1.2,8.9,8,15.4,16,15.4h6.1h26.1h6.1
		c8,0,14.8-6.5,16-15.4l3.9-28C121.2,199.7,119.9,198.6,118.2,198.6z"/>
</g>
<path d="M215.4,149.4h105v0.5c0,1.7-1.3,3-3,3h-99c-1.7,0-3-1.3-3-3L215.4,149.4L215.4,149.4z"/>
<g>
	<path class="st6" d="M16.7,129.4l81,11.5l-0.1,0.5c-0.2,1.6-1.8,2.8-3.4,2.6l-75.1-10.7c-1.6-0.2-2.8-1.8-2.5-3.4L16.7,129.4z"/>
	<path class="st6" d="M54,144.3l1.9,0.3l1.9,0.3c1.1,0.2,2-0.3,1.9-0.9l-0.6-5l-2.4-0.3l-2.4-0.3l-2,4.6
		C52.2,143.5,52.9,144.2,54,144.3z"/>
</g>
<path class="st7" d="M187.3,100.9h-47.7 M211.2,62.1c0,11.5-9.4,20.9-20.9,20.9c-1,0-2-0.1-3-0.2v18.1v11.9h-47.7v-11.9V82.8
	c-1,0.1-2,0.2-3,0.2c-11.5,0-20.9-9.4-20.9-20.9s9.4-20.9,20.9-20.9c2,0,3.9,0.3,5.7,0.8c4-7.6,11.9-12.7,21.1-12.7
	s17.1,5.2,21.1,12.7c1.8-0.5,3.8-0.8,5.7-0.8C201.8,41.3,211.2,50.6,211.2,62.1z"/>
<circle class="st8" cx="177.7" cy="138.6" r="3.7"/>
<circle class="st8" cx="150.3" cy="138.6" r="3.7"/>
<ellipse class="st4" cx="173.7" cy="128.9" rx="1.8" ry="2.5"/>
<ellipse class="st4" cx="153.8" cy="128.9" rx="1.8" ry="2.5"/>
<path class="st9" d="M157.9,141.2c0.4,0.4,3.1,3.2,6.7,3.1c0.5,0,1-0.1,1.6-0.2"/>
<path class="st10" d="M251.1,157.4c-3.4,4.1-13.5,15.2-28.4,16c-2.7,0.1-6.1-0.3-6.7-0.4c-8.6-0.9-14.6-3.1-19.2-5.2
	c-0.3-0.1-0.3-0.2-0.6-0.3l-16.2-5.4c-0.4-0.1-0.7-0.5-0.9-0.9l-0.6-1.8c-0.2-0.5-0.7-0.9-1.3-0.9H151c-0.6,0-1.1,0.4-1.3,0.9
	l-0.6,1.8c-0.1,0.4-0.5,0.7-0.9,0.9l-16.3,5.3c-0.1,0-0.3,0.1-0.4,0.2c-4.6,2.2-10.8,4.4-19.7,5.4c-0.6,0.1-4,0.5-6.7,0.4
	c-14.9-0.8-25-11.9-28.4-16L65,173.6c5.9,5,19.4,15.8,30.9,16.5c0.8,0,3.4,0.2,6.5,0.2c4.6,0,10.3,0,17.1-1.1
	c2.6-0.4,5.9-1.1,9.9-2.2l-5.4,62.8c-0.1,0.8,0.6,1.5,1.4,1.5h37.8h1.7h37.8c0.8,0,1.4-0.7,1.4-1.5l-5.4-62.8
	c3.9,1.1,7.2,1.8,9.7,2.2c6.9,1.1,12.5,1.1,17.1,1.1c3.2,0,5.8-0.1,6.5-0.2c11.5-0.7,25-11.4,30.9-16.5L251.1,157.4z"/>
<rect x="46.4" y="247.9" width="235.8" height="3.3"/>
<g>
	<path class="st1" d="M250.4,147.8h-9.1c-9.6,0-17.4-7.8-17.4-17.4v-2.9h43.9v2.9C267.8,140,260,147.8,250.4,147.8z"/>
	<rect x="234.2" y="147.5" class="st1" width="22.7" height="2.2"/>
</g>
<g>
	<path class="st11" d="M126.7,246h-9.1c-9.6,0-17.4-7.8-17.4-17.4v-3h43.9v3C144.1,238.2,136.3,246,126.7,246z"/>
	<rect x="110.6" y="245.7" class="st11" width="22.7" height="2.2"/>
</g>
<path class="st10" d="M282.9,147.1V129c3.9-0.7,6.8-4.8,6.8-9.7h-16c0,4.9,3,9,6.8,9.7v18.2c-3.1,0.2-5.4,1.2-5.4,2.3h13.5
	C288.6,148.3,286.1,147.3,282.9,147.1z"/>
<path class="st10" d="M300.9,147.1V129c3.9-0.7,6.8-4.8,6.8-9.7h-16c0,4.9,3,9,6.8,9.7v18.2c-3.1,0.2-5.4,1.2-5.4,2.3h13.5
	C306.7,148.3,304.2,147.3,300.9,147.1z"/>
</svg>
