<svg width="40" height="40" viewBox="0 0 40 40" fill="none" xmlns="http://www.w3.org/2000/svg">
<path d="M37.4492 16.0483L37.4492 16.0483C38.1384 16.6492 38.5 17.456 38.5 18.2684V35.3888C38.5 36.995 37.0496 38.5 35 38.5H30C27.9504 38.5 26.5 36.995 26.5 35.3888V27.7036C26.5 25.9143 24.9655 24.6666 23.3333 24.6666H16.6667C15.0345 24.6666 13.5 25.9143 13.5 27.7036V35.3888C13.5 36.995 12.0496 38.5 10 38.5H5C2.95037 38.5 1.5 36.995 1.5 35.3888V18.2684C1.5 17.456 1.8616 16.6492 2.55072 16.0483L18.6958 1.9709C19.4158 1.34303 20.5841 1.34303 21.3042 1.9709L37.4492 16.0483Z" stroke-width="3"/>
</svg>
