<svg width="40" height="38" viewBox="0 0 40 38" fill="none" xmlns="http://www.w3.org/2000/svg">
<path d="M1 17.301C1 28.1785 8.05954 37 16.7661 37C25.4727 37 32.5322 28.1785 32.5322 17.301M27.9401 31.7674C27.9401 31.7674 38.3488 30.5363 38.9611 24.3803C39.5734 18.2244 32.7526 20.3297 32.7526 20.3297M14.3782 8.14706C14.3782 8.14706 13.0312 6.83584 14.3782 5.76471C15.7252 4.69357 17.5621 4.69357 16.9498 2.84679L16.3375 1M19.4907 8.42408C19.4907 8.42408 18.1437 7.11286 19.4907 6.04172C20.8377 4.97059 22.6746 4.97059 22.0623 3.1238L21.45 1.27702M32.8384 16.3776C32.8384 18.4152 25.7115 20.0711 16.9192 20.0711C8.12689 20.0711 1 18.4213 1 16.3776C1 14.3338 8.12689 12.684 16.9192 12.684C25.7115 12.684 32.8384 14.3399 32.8384 16.3776Z" stroke="black" stroke-width="2" stroke-linecap="round" stroke-linejoin="round"/>
</svg>
