<svg width="22" height="45" viewBox="0 0 22 45" fill="none" xmlns="http://www.w3.org/2000/svg">
<path d="M1 23.8059C1.56098 24.4669 2.38323 24.8889 3.30539 24.8889C5.00369 24.8889 6.37924 23.4635 6.37924 21.7037V14.537C6.69431 12.9683 8.09291 11.957 9.45308 12.1481C10.5827 12.3074 11.5279 13.2709 11.7585 14.537V20.1111C11.7585 21.8709 13.134 23.2963 14.8323 23.2963C16.5306 23.2963 17.9062 21.8709 17.9062 20.1111V17.7222C17.7371 16.3526 18.6746 15.3333 19.4431 15.3333C20.2116 15.3333 21.1491 16.3526 20.98 17.7222M7.1477 31.2593V40.0185C7.1477 42.2163 8.86905 44 10.99 44C13.111 44 14.8323 42.2163 14.8323 40.0185V31.2593M20.98 31.2593H1V11.3519C1 5.63444 5.47245 1 10.99 1C16.5076 1 20.98 5.63444 20.98 11.3519V31.2593Z" stroke="black" stroke-width="2" stroke-linecap="round" stroke-linejoin="round"/>
</svg>
