<svg width="40" height="30" viewBox="0 0 40 30" fill="none" xmlns="http://www.w3.org/2000/svg">
<path d="M31.8247 5.78729C31.8247 5.78729 15.5259 -4.02715 4.0696 4.44896C-7.38672 12.9251 16.9139 28.5746 16.9139 28.5746M15.1558 1.00052C9.06191 1.56708 12.349 25.2645 12.349 25.2645M7.12315 2.65113C3.12666 3.97608 5.1932 18.5728 5.1932 18.5728M16.4997 18.2784C14.3891 13.3712 1.90612 13.6611 1.90612 13.6611M23.845 8.6201C19.3858 4.31513 2.46131 5.95235 2.46131 5.95235M38.324 25.0504C37.2136 26.9062 34.7902 27.4817 32.6487 27.3657C30.5073 27.2497 28.3922 26.6207 26.2552 26.7857C23.4352 27.0088 19.7119 30.1048 16.9139 28.5791C16.0767 28.1241 15.5656 27.2095 15.3673 26.2682C14.4155 21.8071 16.8963 16.5787 19.4695 13.1124C21.796 9.98073 27.5022 4.59171 31.8291 5.78729C34.7769 6.59921 35.8433 9.47217 36.676 12.1042C37.0374 13.2507 37.3678 14.4106 37.663 15.575C38.3416 18.265 39.8838 22.4585 38.3284 25.0504H38.324ZM30.0666 15.6017C28.6082 15.6017 27.4229 16.8018 27.4229 18.2784C27.4229 19.755 28.6082 20.9551 30.0666 20.9551C31.5251 20.9551 32.7104 19.755 32.7104 18.2784C32.7104 16.8018 31.5251 15.6017 30.0666 15.6017Z" stroke="black" stroke-width="2" stroke-linecap="round" stroke-linejoin="round"/>
</svg>
