<svg width="36" height="42" viewBox="0 0 36 42" fill="none" xmlns="http://www.w3.org/2000/svg">
<path d="M24.4541 37.0451C28.9666 34.9692 32.108 30.3477 32.108 24.9708V23.5425H1V24.9708C1 30.2208 3.99798 34.7597 8.34225 36.8991M24.4541 37.0451V41H8.34225V36.8991M24.4541 37.0451C22.8211 37.8005 21.0136 38.2195 19.1001 38.2195H14.0079C11.976 38.2195 10.0563 37.7434 8.34225 36.8991M7.55692 23.5425C6.72172 22.6029 5.87406 21.0857 6.23556 19.778C6.52227 18.7432 7.48836 18.0767 8.42328 17.5878C8.66636 17.4609 8.91567 17.3339 9.07149 17.1054C9.24601 16.8515 9.27094 16.5277 9.28964 16.2166C9.33327 15.4866 9.36444 14.6994 8.96554 14.09C8.64766 13.5948 8.08671 13.2838 7.84986 12.7442C7.65041 12.2934 7.70651 11.7792 7.76884 11.2904C7.96829 9.73512 8.1615 8.18616 8.36095 6.63085M11.5958 23.5805C10.6983 22.6981 9.74464 21.2508 10.0189 19.924C10.2308 18.8765 11.1533 18.1401 12.0508 17.5815C12.2814 17.4355 12.5245 17.2895 12.6678 17.0546C12.8236 16.788 12.8299 16.4642 12.8236 16.1532C12.8174 15.4231 12.7925 14.6359 12.3562 14.0519C12.0071 13.5821 11.4275 13.3092 11.147 12.7886C10.9164 12.3569 10.9351 11.8364 10.9663 11.3412C11.0535 9.77956 11.147 8.21155 11.2343 6.6499M16.1707 23.4726C15.1672 22.6981 14.039 21.3523 14.1388 19.9811C14.2198 18.8956 15.0363 18.0386 15.8528 17.3593C16.0647 17.1879 16.2891 17.0038 16.3951 16.7499C16.5197 16.4642 16.4761 16.1341 16.4387 15.823C16.339 15.0867 16.2143 14.2931 15.7094 13.7599C15.2981 13.3282 14.6935 13.1251 14.3507 12.6426C14.064 12.2363 14.0203 11.7031 13.9892 11.2079C13.877 9.62085 13.771 8.02746 13.6588 6.44041M4.62127 7.29741L33.3296 1M5.79303 9.78591L35 6.59911" stroke="black" stroke-width="2" stroke-linecap="round" stroke-linejoin="round"/>
</svg>
