<svg width="40" height="38" viewBox="0 0 40 38" fill="none" xmlns="http://www.w3.org/2000/svg">
<path d="M15.7202 13.2552L17.5144 6.23286C17.8012 6.35487 18.1147 6.42266 18.4415 6.42266C19.7288 6.42266 20.776 5.35846 20.776 4.05024C20.776 2.74203 19.7288 1.67783 18.4415 1.67783C17.7145 1.67783 17.0608 2.01675 16.6273 2.55901C16.3071 1.65072 15.4467 1 14.4395 1C13.1522 1 12.1051 2.0642 12.1051 3.37241C12.1051 4.55184 12.9588 5.5347 14.0727 5.71093L12.3518 12.4418M32.0549 11.52C31.1611 10.8218 30.881 9.54068 31.4346 8.51038C32.0549 7.36484 33.4756 6.94459 34.6029 7.57497C35.4833 8.06979 35.9302 9.05942 35.7834 10.0084C36.4171 9.74403 37.1508 9.76437 37.7911 10.1236C38.9183 10.754 39.3319 12.1978 38.7116 13.3433C38.0912 14.4889 36.6705 14.9091 35.5433 14.2787C35.2565 14.116 35.0164 13.9059 34.823 13.6619L29.9272 18.9422M32.0549 11.5267L27.3593 16.5834M18.148 18.1559C19.9156 17.6476 21.7098 17.2205 23.364 16.4275C23.8175 16.2105 24.2711 15.9597 24.758 15.8377C26.192 15.4853 27.6394 16.746 28.6466 17.6204C29.4736 18.3457 30.4541 19.2879 30.5675 20.4538C30.6676 21.4231 30.2941 22.3924 30.0273 23.3074C29.5337 24.9681 29.3469 26.7102 29.0601 28.4251C28.7666 30.14 28.3731 31.8617 27.5193 33.3732C26.0186 36.0236 23.5574 36.7963 20.7026 36.959C18.6883 37.0742 16.4272 36.9929 14.5663 36.1049C14.046 35.8609 13.5524 35.5491 13.1122 35.1627M10.3775 35.8134C12.4319 35.6779 14.4529 34.6476 16.1604 33.563C18.5883 32.0244 20.3758 30.14 20.4358 27.083C20.4692 25.3477 20.0023 23.6396 19.442 21.9925C18.8817 20.3453 18.2281 18.7321 17.8679 17.0307C17.6678 16.1021 17.5344 15.065 16.9941 14.2652C16.3405 13.2959 15.0398 12.957 13.9726 12.7265C12.672 12.4486 10.8111 12.0487 9.7172 13.0654C9.34368 13.4111 9.07022 13.8517 8.77007 14.2652C7.48276 16.075 5.76191 17.512 4.24783 19.1252C2.73375 20.7385 1.3664 22.6567 1.05958 24.8665C0.766106 26.9949 1.59318 28.7979 2.74042 30.5128C4.04106 32.4582 5.5418 34.6205 7.80959 35.461C8.65668 35.7728 9.5171 35.8745 10.3775 35.8134Z" stroke="black" stroke-width="2" stroke-linecap="round" stroke-linejoin="round"/>
</svg>
