<svg width="66" height="56" viewBox="0 0 66 56" fill="none" xmlns="http://www.w3.org/2000/svg">
<path d="M56.6067 45.8449C61.9512 42.6276 65.5706 37.8727 64.9257 34.6396C64.4179 32.0926 61.4595 33.3858 57.5176 35.4834M8.48237 34.6002C4.54859 32.6446 1.59019 31.4302 1.07428 33.8116C0.429398 36.8318 4.0488 41.2713 9.39327 44.2757M56.6229 26.1311H9.9656C8.88542 26.1311 8.04707 26.8724 8.16799 27.724L10.675 45.3324C11.465 50.8995 15.834 55 20.9528 55H45.6276C50.7544 55 55.1154 50.8995 55.9054 45.3324L58.4124 27.724C58.5333 26.8724 57.695 26.1311 56.6148 26.1311H56.6229ZM56.9695 10.9279C56.776 8.53067 54.6398 6.74065 52.1893 6.92991L11.9083 9.98949C9.45775 10.1787 7.6279 12.2684 7.82137 14.6656L8.17605 19.0815L57.3322 15.3438L56.9775 10.9279H56.9695ZM35.7045 8.07331L27.6676 8.68049L27.1034 1.60718L35.1402 1L35.7045 8.07331Z" stroke="white" stroke-width="2" stroke-linecap="round" stroke-linejoin="round"/>
</svg>
