<svg width="26" height="29" viewBox="0 0 26 29" fill="none" xmlns="http://www.w3.org/2000/svg">
<path d="M22.9905 14.5873H26M22.9905 14.5873C22.9905 16.4544 21.5546 17.968 19.7833 17.968C18.012 17.968 16.576 16.4544 16.576 14.5873M22.9905 14.5873C22.9905 12.7202 21.5546 11.2066 19.7833 11.2066C18.012 11.2066 16.576 12.7202 16.576 14.5873M0 14.5873H16.576M10.0814 5.55541H26M0 5.55541H3.67763M14.6035 23.6193H25.9999M14.6035 23.6193C14.6035 25.4864 13.1676 27 11.3963 27C9.62499 27 8.18913 25.4864 8.18913 23.6193M14.6035 23.6193C14.6035 21.7523 13.1676 20.2387 11.3963 20.2387C9.62499 20.2387 8.18913 21.7523 8.18913 23.6193M0 23.6193H8.18913M10.0868 5.38066C10.0868 7.24775 8.65083 8.76132 6.87952 8.76132C5.10822 8.76132 3.67229 7.24775 3.67229 5.38066C3.67229 3.51357 5.10822 2 6.87952 2C8.65083 2 10.0868 3.51357 10.0868 5.38066Z" stroke="black" stroke-width="3"/>
</svg>
