<svg width="17" height="16" viewBox="0 0 17 16" fill="none" xmlns="http://www.w3.org/2000/svg">
<path d="M12.9568 15.0387L12.9437 15.0381L12.9305 15.0382C12.8908 15.0383 12.8505 15.0287 12.8127 15.0087L8.8435 12.827L8.60266 12.6946L8.36182 12.827L4.39008 15.01L4.38927 15.0105C4.34479 15.035 4.29667 15.0451 4.2498 15.0414C4.20286 15.0378 4.15548 15.0203 4.1133 14.988C4.07087 14.9554 4.03496 14.9085 4.0128 14.8506C3.99059 14.7925 3.98404 14.728 3.9947 14.665L3.9947 14.6649L4.77347 10.0617L4.81602 9.81025L4.63739 9.62818L1.43183 6.36074C1.39511 6.32158 1.36693 6.27044 1.35291 6.21159C1.33901 6.15318 1.34018 6.09172 1.3561 6.03426C1.37493 5.97629 1.40755 5.92785 1.44751 5.89262C1.48823 5.85674 1.53502 5.83576 1.58184 5.82878L1.58361 5.82851L6.02261 5.14988L6.28719 5.10943L6.40025 4.86683L8.35497 0.672434L8.35497 0.672436L8.35579 0.670672C8.38152 0.614898 8.42006 0.571381 8.46392 0.542515C8.50752 0.513828 8.55554 0.5 8.60266 0.5C8.64979 0.5 8.69781 0.513828 8.74141 0.542515C8.78527 0.571382 8.82381 0.614899 8.84954 0.670672L8.84952 0.670681L8.85149 0.674842L10.8296 4.86106L10.9432 5.10151L11.2061 5.1417L15.6451 5.82033L15.6469 5.8206C15.6937 5.82758 15.7405 5.84856 15.7812 5.88445C15.8211 5.91968 15.8538 5.96812 15.8726 6.02608C15.8885 6.08354 15.8897 6.145 15.8758 6.20341C15.8618 6.26227 15.8336 6.31341 15.7969 6.35256L12.5913 9.62L12.4127 9.80207L12.4552 10.0536L13.234 14.6568L13.234 14.6568L13.235 14.6626C13.2466 14.7267 13.2404 14.7927 13.2178 14.852C13.1956 14.9102 13.1596 14.9572 13.117 14.9898C13.0674 15.0256 13.0113 15.0414 12.9568 15.0387Z" stroke="black"/>
</svg>
