<svg width="41" height="40" viewBox="0 0 41 40" fill="none" xmlns="http://www.w3.org/2000/svg">
<path d="M9.36051 25.9124C9.1566 26.8338 9.07818 27.7915 9.12523 28.7389C9.15138 29.2542 9.21412 29.7539 9.303 30.2432C10.333 35.6983 15.3052 39.42 19.9584 38.9619C21.9243 38.7641 23.8274 38.0406 25.6364 37.1141C28.7421 35.5265 31.6124 33.3455 34.19 30.7637C35.7324 29.223 37.1806 27.5156 38.2472 25.496C39.3138 23.4764 39.9883 21.1132 39.8785 18.7344C39.8732 18.6355 39.868 18.5314 39.8576 18.4273M28.6166 13.9872C28.6166 13.9872 32.7627 5.94517 28.0571 2.30151C23.3516 -1.34215 15.2738 3.82143 15.2738 3.82143C15.2738 3.82143 12.372 5.94517 7.14368 6.46569C1.91532 6.98621 -1.25829 15.4968 2.94008 19.5725C7.13846 23.6482 9.34482 23.1172 9.34482 23.1172M9.23503 24.9338C9.13569 23.2161 9.60102 21.4411 10.6676 20.0826C11.8074 18.6251 13.538 17.7402 15.3052 17.1676C19.9218 15.6789 24.8626 14.8721 29.6518 14.1903C31.2987 13.956 32.9352 13.6073 34.5926 13.4407C35.884 13.3106 37.7348 13.0607 38.8537 13.8675C39.6484 14.4453 39.936 15.4916 39.9883 16.4649C40.0981 18.4742 39.4288 20.473 38.357 22.1855C37.2852 23.898 35.8422 25.3399 34.2998 26.6412C31.7222 28.8274 28.8466 30.67 25.7462 32.013C23.9372 32.7937 22.0341 33.408 20.0682 33.5745C15.4097 33.9649 10.4376 30.8158 9.41279 26.1987C9.31868 25.7875 9.26117 25.3607 9.23503 24.9286V24.9338ZM23.3359 19.1352C22.4105 19.0467 21.4642 19.1664 20.5597 19.4059C18.9075 19.8483 16.4397 20.6187 15.5718 22.2323C14.9601 23.3775 15.3208 24.8662 16.1835 25.8396C17.0462 26.8129 18.301 27.3543 19.5663 27.6718C21.1191 28.0622 22.7399 28.1715 24.3293 27.9893C25.9501 27.8019 27.733 27.1461 28.3604 25.6418C29.4479 23.0548 26.8337 20.0826 24.4653 19.3538C24.094 19.2393 23.7176 19.1665 23.3307 19.13L23.3359 19.1352Z" stroke="black" stroke-width="2" stroke-linecap="round" stroke-linejoin="round"/>
</svg>
