<svg width="39" height="38" viewBox="0 0 39 38" fill="none" xmlns="http://www.w3.org/2000/svg">
<path d="M12.7846 3.76615C14.2985 2.0785 16.6095 1 19.2012 1C21.7929 1 24.3295 2.18835 25.8384 4.0208C27.3824 2.46296 29.9742 2.13842 32.1197 3.3717C34.6363 4.81969 35.5938 7.86545 34.2553 10.1722C34.1701 10.322 34.0748 10.4668 33.9695 10.6016C36.3758 11.4405 38 13.0482 38 14.9007C38 17.3273 35.1877 19.3495 31.4981 19.7439C31.819 20.7325 31.7688 21.7461 31.2776 22.595C30.1697 24.5073 27.2321 24.8818 24.7155 23.4338C23.8483 22.9345 23.1414 22.2804 22.6401 21.5664M12.7846 3.76615C11.797 2.97226 10.5438 2.49792 9.1752 2.49792C5.99194 2.49792 3.41024 5.06934 3.41024 8.23993C3.41024 9.17862 3.63583 10.0674 4.04188 10.8463C1.81611 12.4591 0.617999 14.5511 1.10927 16.4535C1.67574 18.6405 4.33765 19.9686 7.68634 20.0335M12.7846 3.76615C12.7846 3.76615 13.9376 4.49514 15.1607 6.21275M7.68634 20.0335C9.32058 22.2404 12.3936 23.7284 15.9127 23.7284C18.5395 23.7284 20.9207 22.8995 22.6401 21.5664M7.68634 20.0335L5.91675 16.9778M22.6401 21.5664L25.4675 18.975M27.974 24.4723C27.974 24.4723 26.4701 35.4571 24.9662 36.4557C23.4623 37.4543 17.4467 36.955 16.4441 35.9564C16.4441 35.9564 11.9324 23.9631 12.4337 23.2191L16.4441 23.973L19.4519 30.9633C19.4519 30.9633 21.6375 24.3775 21.4571 22.9744M29.2724 14.9905C29.8639 12.7237 28.0642 10.2921 25.2519 9.56309C22.4396 8.8341 19.6775 10.0824 19.0859 12.3492" stroke="black" stroke-width="2" stroke-linecap="round" stroke-linejoin="round"/>
</svg>
