<?xml version="1.0" encoding="UTF-8"?>
<svg id="Layer_1" data-name="Layer 1" xmlns="http://www.w3.org/2000/svg" viewBox="0 0 37.31 23.61">
  <defs>
    <style>
      .cls-1 {
        fill: #010101;
        stroke-width: 0px;
      }
    </style>
  </defs>
  <path class="cls-1" d="m3.15,11.81L12.94,3.34v6.09h18.93c1.34,0,2.44,1.09,2.44,2.44s-1.09,2.44-2.44,2.44H12.94v5.97L3.15,11.81Z"/>
  <path class="cls-1" d="m11.44,6.62v4.31h20.43c.52,0,.94.42.94.94s-.42.94-.94.94H11.44v4.19l-6-5.18,6-5.18m1.78-5.12c-.27,0-.55.09-.79.3L1.92,10.89c-.56.48-.56,1.35,0,1.84l10.51,9.09c.24.21.52.3.79.3.63,0,1.22-.49,1.22-1.22v-5.09h17.43c2.17,0,3.94-1.76,3.94-3.94s-1.76-3.94-3.94-3.94H14.44V2.72c0-.73-.59-1.22-1.22-1.22h0Z"/>
</svg>