<svg width="44" height="35" viewBox="0 0 44 35" fill="none" xmlns="http://www.w3.org/2000/svg">
<path d="M15.3923 13.4134C15.3923 15.1583 15.6147 16.8321 16.0239 18.392M38.301 13.4134C38.301 21.1327 33.9506 27.5053 28.319 28.4584M34.9648 24.5561C34.9648 24.5561 42.5269 23.6078 42.9718 18.8662C43.4166 14.1246 38.4612 15.7462 38.4612 15.7462M24.6358 6.50495C24.6358 6.50495 23.6572 5.495 24.6358 4.66997C25.6145 3.84494 26.949 3.84494 26.5041 2.42247L26.0593 1M28.3502 6.71832C28.3502 6.71832 27.3715 5.70837 28.3502 4.88334C29.3288 4.05831 30.6633 4.05831 30.2185 2.63584L29.7736 1.21337M19.7249 32.0288L21.8067 32.8253C22.7275 33.1762 23.7551 32.8253 24.3067 31.9671L28.2034 25.9501C28.5103 25.0397 27.9899 24.0108 27.0379 23.6504L22.2738 21.8249M24.0042 32.4318C24.0042 32.4318 29.182 34.9922 30.0717 33.5698C30.9613 32.1473 27.4472 27.1165 27.4472 27.1165M8.94221 21.493L4.17807 23.3185C3.22613 23.6789 2.70568 24.7078 3.01262 25.6182L6.95381 31.7063C7.48316 32.5219 8.46179 32.8585 9.33811 32.5219L11.4955 31.6969M3.76883 26.7846C3.76883 26.7846 0.254666 31.8106 1.14433 33.2331C2.03399 34.6556 7.21182 32.0951 7.21182 32.0951M38.5234 12.7022C38.5234 14.2716 33.3456 15.5471 26.9578 15.5471C20.5701 15.5471 15.3923 14.2716 15.3923 12.7022C15.3923 11.1327 20.5701 9.85723 26.9578 9.85723C33.3456 9.85723 38.5234 11.1327 38.5234 12.7022ZM19.3957 31.1468L22.0692 20.8055C22.0692 19.4779 20.9082 18.4015 19.4802 18.4015H11.3132C9.8808 18.4015 8.72424 19.4779 8.72424 20.8055L11.8025 31.2274C12.0872 32.1995 12.9323 32.8585 13.8887 32.8585H17.2872C18.2703 32.8585 19.1333 32.1568 19.3957 31.1468Z" stroke="black" stroke-width="2" stroke-linecap="round" stroke-linejoin="round"/>
</svg>
