<svg width="39" height="33" viewBox="0 0 39 33" fill="none" xmlns="http://www.w3.org/2000/svg">
<path d="M1 13.4V32H24.0565C24.3511 31.008 25.2693 30.2778 26.3519 30.2778C27.4344 30.2778 28.3526 31.008 28.6472 32H38V23.6644C36.4378 23.3476 35.2593 21.956 35.2593 20.2889C35.2593 18.6218 36.4378 17.2302 38 16.9133V13.4M1 13.4H38M1 13.4L7.16667 1L15.9576 4.534C15.8137 4.81644 15.7315 5.14022 15.7315 5.47778C15.7315 6.62133 16.6496 7.54444 17.787 7.54444C18.7189 7.54444 19.5069 6.92444 19.7535 6.06333L38 13.4M20.5278 16.8444C19.7741 16.8444 19.1574 17.4644 19.1574 18.2222C19.1574 18.98 19.7741 19.6 20.5278 19.6C21.2815 19.6 21.8981 18.98 21.8981 18.2222C21.8981 17.4644 21.2815 16.8444 20.5278 16.8444ZM8.53704 7.2C7.78333 7.2 7.16667 7.82 7.16667 8.57778C7.16667 9.33556 7.78333 9.95556 8.53704 9.95556C9.29074 9.95556 9.90741 9.33556 9.90741 8.57778C9.90741 7.82 9.29074 7.2 8.53704 7.2ZM28.0648 20.9778C26.7424 20.9778 25.6667 22.0593 25.6667 23.3889C25.6667 24.7184 26.7424 25.8 28.0648 25.8C29.3872 25.8 30.463 24.7184 30.463 23.3889C30.463 22.0593 29.3872 20.9778 28.0648 20.9778ZM10.25 19.6C8.54389 19.6 7.16667 20.9847 7.16667 22.7C7.16667 24.4153 8.54389 25.8 10.25 25.8C11.9561 25.8 13.3333 24.4153 13.3333 22.7C13.3333 20.9847 11.9561 19.6 10.25 19.6Z" stroke="black" stroke-width="2" stroke-linecap="round" stroke-linejoin="round"/>
</svg>
