<svg width="36" height="37" viewBox="0 0 36 37" fill="none" xmlns="http://www.w3.org/2000/svg">
<path d="M33.64 19.66C34.4508 20.1133 35 20.9933 35 22C35 22.7333 34.7058 23.4 34.235 23.8867C33.7577 24.3667 33.1038 24.6667 32.3846 24.6667H3.61538C2.17038 24.6667 1 23.4733 1 22C1 21.2667 1.29423 20.6 1.765 20.1133C2.08538 19.7933 2.47769 19.5533 2.92231 19.4333H2.93538C3.15115 19.3667 3.38 19.3333 3.61538 19.3333M2.70654 15.3733C1.66038 15.4733 1.01308 16.8933 1.62769 17.7467C2.24885 18.6067 3.51731 18.58 4.57654 18.46C4.15154 19.1467 3.74615 20.1 4.30846 20.6867C4.64846 21.04 5.20423 21.0667 5.68808 21.02C6.81923 20.92 7.93077 20.58 8.92462 20.0267C9.51962 21.1267 10.8731 21.7667 12.1023 21.5333C13.3315 21.3 14.3515 20.2067 14.5019 18.96C15.2604 19.8067 16.0842 20.6933 17.1827 20.9733C18.5623 21.32 20.0988 20.52 20.7331 19.2467C21.1777 18.3533 22.2369 19.06 22.7404 19.5133C23.1523 19.8867 23.5446 20.3067 24.0612 20.5133C24.4862 20.68 24.9635 20.6867 25.4212 20.6867C26.0881 20.6867 26.8008 20.6733 27.3565 20.3C27.6835 20.0733 27.9188 19.74 28.2 19.46C28.6577 19 29.2527 18.6733 29.8869 18.5267C29.9785 18.9 29.9523 19.26 29.9915 19.64C30.0308 20.02 30.1746 20.4133 30.5146 20.5667C30.8742 20.7267 31.2862 20.5533 31.6196 20.3467C33.0515 19.4467 34.3462 17.56 33.9342 15.8M1.65385 15.3333C1.65385 7.42 8.89846 1 17.8365 1C26.7746 1 34.0192 7.42 34.0192 15.3333H1.65385ZM34.3462 32.6733V30.6667H1.65385V32.6733C1.65385 34.5133 3.11192 36 4.91654 36H31.0835C32.8881 36 34.3462 34.5133 34.3462 32.6733ZM35 28C35 26.5267 33.8296 25.3333 32.3846 25.3333H3.61538C2.17038 25.3333 1 26.5267 1 28C1 29.4733 2.17038 30.6667 3.61538 30.6667H32.3846C33.8296 30.6667 35 29.4733 35 28Z" stroke="black" stroke-width="2" stroke-linecap="round" stroke-linejoin="round"/>
</svg>
