<svg width="349" height="351" viewBox="0 0 349 351" fill="none" xmlns="http://www.w3.org/2000/svg">
<path d="M212.78 261.064H127.794V268.836H212.78V261.064Z" fill="#D6D5D5" stroke="black" stroke-width="2" stroke-miterlimit="10"/>
<path d="M253.693 192.157C261.65 189.46 267.633 187.785 268.67 191.064C269.976 195.226 262.647 201.344 251.848 205.485" fill="#D6D5D5"/>
<path d="M253.693 192.157C261.65 189.46 267.633 187.785 268.67 191.064C269.976 195.226 262.647 201.344 251.848 205.485" stroke="black" stroke-width="2" stroke-miterlimit="10"/>
<path d="M88.6061 205.485C77.7971 201.354 70.4781 195.226 71.7843 191.064C72.8213 187.785 78.7942 189.45 86.7614 192.158" fill="#D6D5D5"/>
<path d="M88.6061 205.485C77.7971 201.354 70.4781 195.226 71.7843 191.064C72.8213 187.785 78.7942 189.45 86.7614 192.158" stroke="black" stroke-width="2" stroke-miterlimit="10"/>
<path d="M251.4 157.85H199.429H141.156H89.1845C85.4252 157.85 82.5036 160.507 82.9224 163.546L91.6574 226.505C94.4195 246.402 109.586 261.064 127.405 261.064H141.166H199.429H213.189C231.008 261.064 246.175 246.402 248.937 226.505L257.672 163.546C258.081 160.507 255.159 157.85 251.4 157.85Z" fill="#D6D5D5" stroke="black" stroke-width="2" stroke-miterlimit="10"/>
<path d="M252.457 65.7172L80.3797 96.7456L80.2501 96.0336C79.2828 90.6181 82.8626 85.4534 88.2471 84.4807L240.84 56.9723C246.224 55.9995 251.36 59.5998 252.327 65.0152L252.457 65.7172Z" fill="#D6D5D5" stroke="black" stroke-width="2" stroke-miterlimit="10"/>
<path d="M165.306 51.9179L161.318 52.6399L157.329 53.362C154.996 53.7832 153.51 55.8089 154.198 57.6241L159.543 71.624L164.549 70.7214L169.554 69.8189L169.714 54.8261C169.734 52.8806 167.65 51.4967 165.306 51.9179Z" fill="#D6D5D5" stroke="black" stroke-width="2" stroke-miterlimit="10"/>
<path d="M209.41 131.073L195.041 134.413C192.748 124.424 198.94 114.446 208.872 112.139C218.803 109.833 228.725 116.061 231.018 126.049L216.649 129.389" fill="#C8A88B"/>
<path d="M209.41 131.073L195.041 134.413C192.748 124.424 198.94 114.446 208.872 112.139C218.803 109.833 228.725 116.061 231.018 126.049L216.649 129.389" stroke="black" stroke-width="2" stroke-miterlimit="10"/>
<path d="M202.241 128.115C208.104 123.903 208.842 128.606 208.842 128.606L209.37 130.893L212.132 142.927L219.361 141.242L216.599 129.208L216.071 126.922C216.071 126.922 214.675 122.369 221.785 123.572" fill="#C8A88B"/>
<path d="M202.241 128.115C208.104 123.903 208.842 128.606 208.842 128.606L209.37 130.893L212.132 142.927L219.361 141.242L216.599 129.208L216.071 126.922C216.071 126.922 214.675 122.369 221.785 123.572" stroke="black" stroke-width="2" stroke-miterlimit="10"/>
<path d="M71.4431 294.371C84.3144 290.875 92.6479 280.218 90.0565 270.566C87.4651 260.915 74.93 255.925 62.0587 259.421C49.1874 262.916 40.854 273.574 43.4454 283.225C46.0368 292.877 58.5718 297.867 71.4431 294.371Z" fill="#9F072B" stroke="black" stroke-width="2" stroke-miterlimit="10"/>
<path d="M66.8983 268.786C66.3399 268.585 68.055 262.839 72.1433 257.413C75.1347 253.442 77.2885 252.449 79.1333 252.289C80.3498 252.178 81.9651 252.379 82.1945 253.001C82.4936 253.803 80.28 254.796 76.9096 257.534C76.9096 257.534 75.4638 258.707 73.4296 260.683C68.7231 265.236 67.347 268.946 66.8983 268.786Z" fill="#2E4836" stroke="black" stroke-width="2" stroke-miterlimit="10"/>
<path d="M66.8086 269.758C66.4596 269.267 71.3954 264.804 78.1062 261.946C83.0221 259.85 85.4252 260.101 87.0705 260.953C88.1574 261.515 89.3839 262.588 89.2044 263.3C88.9651 264.223 86.5121 263.932 82.025 264.664C82.025 264.664 80.1105 264.975 77.1988 265.717C70.498 267.432 67.0878 270.16 66.8086 269.758Z" fill="#2E4836" stroke="black" stroke-width="2" stroke-miterlimit="10"/>
<path d="M66.659 269.799C67.1775 269.618 65.5821 264.193 61.783 259.078C59.0009 255.327 56.9967 254.405 55.2816 254.244C54.1449 254.144 52.6491 254.325 52.4298 254.916C52.1506 255.678 54.2147 256.611 57.3457 259.188C57.3457 259.188 58.6819 260.292 60.5864 262.157C64.9539 266.449 66.2402 269.939 66.659 269.799Z" fill="#2E4836" stroke="black" stroke-width="2" stroke-miterlimit="10"/>
<path d="M67.0678 269.428C67.0579 268.896 60.0579 267.151 52.5793 267.392C47.0951 267.562 45.2304 268.675 44.3729 269.999C43.8145 270.872 43.4455 272.205 44.0538 272.707C44.8415 273.369 46.7361 272.195 50.9839 271.082C50.9839 271.082 52.7987 270.601 55.7303 270.099C62.481 268.936 67.0778 269.859 67.0678 269.428Z" fill="#2E4836" stroke="black" stroke-width="2" stroke-miterlimit="10"/>
<path d="M57.8941 218.402C47.4839 214.15 32.1778 205.666 22.3659 188.878C21.3688 187.173 20.4813 185.468 19.6836 183.774" stroke="black" stroke-width="2" stroke-miterlimit="10" stroke-linecap="round"/>
<path d="M48.5808 213.057C45.7589 213.849 45.2703 202.056 47.2347 196.801C47.5139 196.049 48.1022 194.524 49.5879 193.221C50.954 192.027 52.9483 191.115 53.9255 191.315C57.8343 192.117 52.0808 212.074 48.5808 213.057Z" fill="#2E4836" stroke="black" stroke-width="2" stroke-miterlimit="10"/>
<path d="M29.665 198.465C26.7434 198.626 28.7676 187.013 31.7989 182.289C32.2277 181.617 33.1351 180.254 34.8601 179.301C36.4456 178.418 38.5894 177.967 39.4968 178.378C43.1663 180.003 33.2946 198.265 29.665 198.465Z" fill="#2E4836" stroke="black" stroke-width="2" stroke-miterlimit="10"/>
<path d="M21.3189 186.15C19.205 188.196 13.2022 178.057 12.4443 172.491C12.3347 171.699 12.1352 170.075 12.8233 168.219C13.4515 166.514 14.7876 164.759 15.7349 164.469C19.5639 163.305 23.9414 183.613 21.3189 186.15Z" fill="#2E4836" stroke="black" stroke-width="2" stroke-miterlimit="10"/>
<path d="M28.6679 199.308C29.6451 196.53 17.9885 195.226 12.6338 196.831C11.876 197.061 10.3204 197.543 8.92443 198.947C7.63811 200.231 6.61106 202.176 6.74068 203.169C7.26917 207.15 27.4613 202.748 28.6679 199.308Z" fill="#2E4836" stroke="black" stroke-width="2" stroke-miterlimit="10"/>
<path d="M46.6862 213.508C47.3543 210.64 35.6279 210.62 30.4727 212.806C29.7448 213.117 28.2491 213.769 27.0126 215.313C25.8759 216.727 25.0582 218.773 25.2975 219.746C26.2647 223.667 45.8586 217.068 46.6862 213.508Z" fill="#2E4836" stroke="black" stroke-width="2" stroke-miterlimit="10"/>
<path d="M286.868 145.123C288.553 148.172 294.885 150.308 299.352 147.32C302.882 144.963 304.448 139.939 303.012 137.351C302.304 136.078 301.137 135.877 300.888 134.433C300.609 132.798 301.696 130.742 303.251 130.151C304.537 129.659 305.096 130.572 306.97 130.281C308.217 130.091 310.221 129.348 310.55 127.995C310.899 126.561 309.244 124.896 307.768 123.402C306.243 121.867 305.475 121.677 305.435 120.854C305.365 119.561 307.15 118.006 308.965 117.796C310.919 117.565 311.787 119.039 312.744 118.508C314.05 117.786 314.21 114.075 312.544 112.25C311.846 111.478 311.148 111.407 310.65 110.404C310.251 109.592 309.992 108.208 310.63 107.516C311.577 106.493 313.522 108.098 315.237 107.215C316.812 106.413 317.47 103.886 317.171 102.041C316.513 98.0292 310.959 95.3015 306.452 95.8129C304.029 96.0937 300.788 97.4375 300.499 99.3931C300.25 101.088 302.433 101.9 302.314 104.217C302.234 105.751 301.157 107.516 299.801 107.817C298.136 108.178 297.288 106.032 294.925 106.172C294.795 106.182 292.921 106.313 292.263 107.546C291.425 109.121 293.09 111.568 293.688 112.44C294.975 114.326 295.962 114.516 296.072 115.76C296.161 116.873 295.503 118.277 294.466 118.638C293.01 119.149 292.083 117.174 289.77 117.294C288.802 117.344 287.387 117.775 286.808 118.849C285.781 120.754 287.905 123.793 288.204 124.224C289.072 125.437 289.68 125.628 289.79 126.53C289.929 127.724 289.092 129.228 287.875 129.679C286.2 130.311 285.123 128.466 283.328 129.018C281.992 129.429 280.915 130.973 280.935 132.337C280.945 133.56 281.832 133.811 283.378 136.238C284.485 137.973 285.063 139.467 285.502 140.601C286.629 143.499 286.26 144.03 286.868 145.123Z" fill="#2E4836" stroke="black" stroke-width="2" stroke-miterlimit="10" stroke-linecap="round"/>
<path d="M281.324 146.778C284.485 148.212 290.837 146.136 292.651 141.062C294.087 137.05 292.372 132.086 289.68 130.863C288.354 130.261 287.307 130.803 286.25 129.79C285.063 128.647 284.714 126.34 285.612 124.936C286.349 123.773 287.337 124.174 288.673 122.81C289.56 121.907 290.727 120.112 290.198 118.829C289.63 117.465 287.317 117.124 285.243 116.813C283.109 116.492 282.381 116.803 281.862 116.171C281.045 115.168 281.553 112.862 282.889 111.608C284.325 110.254 285.891 110.906 286.349 109.913C286.968 108.549 284.904 105.47 282.481 104.999C281.463 104.799 280.865 105.17 279.868 104.658C279.07 104.247 278.033 103.284 278.143 102.352C278.303 100.958 280.805 101.088 281.663 99.353C282.451 97.7585 281.483 95.3416 280.157 94.0379C277.256 91.2098 271.173 92.3431 267.862 95.462C266.088 97.1367 264.273 100.165 265.21 101.9C266.018 103.415 268.251 102.753 269.528 104.688C270.365 105.972 270.555 108.028 269.647 109.081C268.521 110.374 266.566 109.161 264.761 110.685C264.662 110.766 263.236 112.009 263.435 113.383C263.694 115.158 266.476 116.111 267.484 116.462C269.627 117.204 270.545 116.763 271.362 117.695C272.1 118.528 272.389 120.062 271.781 120.975C270.914 122.258 268.999 121.225 267.214 122.71C266.466 123.331 265.589 124.525 265.758 125.728C266.058 127.864 269.568 129.048 270.066 129.208C271.482 129.659 272.08 129.449 272.709 130.111C273.526 130.983 273.746 132.698 273.048 133.791C272.08 135.295 270.116 134.463 268.999 135.987C268.172 137.121 268.221 139.006 269.039 140.089C269.777 141.072 270.625 140.731 273.307 141.754C275.221 142.486 276.577 143.338 277.595 143.98C280.177 145.605 280.187 146.257 281.324 146.778Z" fill="#2E4836" stroke="black" stroke-width="2" stroke-miterlimit="10" stroke-linecap="round"/>
<path d="M316.194 164.218C316.194 170.606 311.039 175.791 304.687 175.791C300.678 175.791 296.899 173.544 294.865 170.255C294.436 169.563 293.07 167.277 293.18 164.218C293.369 159.113 297.667 152.645 304.687 152.645C311.039 152.645 316.194 157.83 316.194 164.218Z" fill="#9F072B" stroke="black" stroke-width="2" stroke-miterlimit="10"/>
<path d="M300.499 152.996C298.594 145.675 292.981 120.844 306.292 107.215C307.22 106.273 308.247 105.36 309.393 104.508" stroke="black" stroke-width="2" stroke-miterlimit="10" stroke-linecap="round"/>
<path d="M299.093 153.588C289.102 144.04 276.677 128.677 274.264 108.349C274.005 106.193 273.875 104.097 273.845 102.041" stroke="black" stroke-width="2" stroke-miterlimit="10" stroke-linecap="round"/>
<path d="M308.735 175.059L311.866 183.192" stroke="black" stroke-width="2" stroke-miterlimit="10" stroke-linecap="round"/>
<path d="M308.227 175.42L313.452 183.463" stroke="black" stroke-width="2" stroke-miterlimit="10" stroke-linecap="round"/>
<path d="M310.839 174.447L309.752 184.837" stroke="black" stroke-width="2" stroke-miterlimit="10" stroke-linecap="round"/>
<path d="M295.832 171.027C296.7 169.934 299.033 167.246 302.224 166.454L295.832 171.027Z" fill="#9F072B"/>
<path d="M295.832 171.027C296.7 169.934 299.033 167.246 302.224 166.454" stroke="black" stroke-width="2" stroke-miterlimit="10" stroke-linecap="round"/>
<path d="M293.579 166.524C294.556 165.331 297.198 162.383 301.057 161.219L293.579 166.524Z" fill="#9F072B"/>
<path d="M293.579 166.524C294.556 165.331 297.198 162.383 301.057 161.219" stroke="black" stroke-width="2" stroke-miterlimit="10" stroke-linecap="round"/>
<path d="M58.5323 117.094C58.6021 119.43 55.7004 122.248 52.689 122.549C50.6249 122.76 49.0694 121.586 45.9483 119.26C43.7247 117.595 42.917 116.372 42.4683 115.248C42.3586 114.978 41.4413 112.671 42.3287 111.849C43.1264 111.117 44.7418 112.16 45.2803 111.488C45.6691 110.996 45.1706 109.963 44.7119 109.121C43.1464 106.253 41.6706 104.969 40.9925 103.966C38.3202 99.9849 41.9498 91.0995 45.1706 90.8187C47.0153 90.6583 49.548 93.2457 49.6976 95.5924C49.7774 96.8961 49.0993 97.6382 49.6278 98.3402C50.0765 98.9319 50.8443 98.7614 53.746 99.4834C54.6135 99.7041 54.8728 99.7943 55.1021 100.055C55.7802 100.827 55.6107 102.412 54.9127 103.475C54.3144 104.387 53.6862 104.357 53.5266 105.059C53.3471 105.892 53.9753 107.035 54.8329 107.296C55.8899 107.627 56.4582 106.323 57.9938 106.343C59.0707 106.353 60.2075 107.015 60.7459 107.988C61.5736 109.492 60.8157 111.468 59.7987 112.45C59.0209 113.192 58.4425 113.032 58.0636 113.724C57.4953 114.767 58.4924 115.76 58.5323 117.094Z" fill="#2E4836" stroke="black" stroke-width="2" stroke-miterlimit="10"/>
<path d="M54.7033 125.327C56.4582 123.793 56.5579 119.741 54.7431 117.314C53.4967 115.65 51.5922 115.278 47.7731 114.546C45.0509 114.025 43.6051 114.246 42.4883 114.677C42.219 114.777 39.9057 115.66 39.9057 116.873C39.9057 117.956 41.7703 118.458 41.6407 119.3C41.541 119.922 40.4541 120.253 39.5168 120.483C36.3658 121.266 34.4214 121.035 33.2248 121.215C28.4983 121.927 24.4499 130.632 26.4243 133.21C27.5511 134.684 31.1607 134.814 32.9755 133.33C33.9826 132.508 34.0724 131.495 34.9399 131.424C35.6778 131.364 36.0667 132.046 38.5595 133.701C39.3074 134.202 39.5567 134.323 39.8957 134.323C40.9227 134.303 41.9697 133.109 42.2689 131.866C42.5281 130.803 42.0794 130.361 42.4982 129.77C42.9868 129.078 44.2532 128.767 45.021 129.218C45.9783 129.78 45.4099 131.083 46.4569 132.207C47.1948 132.999 48.4512 133.39 49.5181 133.129C51.1734 132.728 52.1207 130.823 52.1506 129.409C52.1705 128.326 51.652 128.015 51.9113 127.263C52.3001 126.129 53.6961 126.2 54.7033 125.327Z" fill="#2E4836" stroke="black" stroke-width="2" stroke-miterlimit="10"/>
<path d="M74.6162 109.933C69.6205 110.946 63.3983 113.223 60.6961 119.711C58.4326 125.157 61.8328 131.916 66.0108 135.907C75.5934 145.053 92.7044 142.917 116.925 139.899C125.989 138.765 135.711 136.228 155.165 131.144C166.732 128.115 170.262 126.851 170.212 125.387C170.182 124.515 158.346 124.013 120.245 117.354C119.368 117.204 120.245 117.354 115.1 116.492C82.9124 111.066 80.2999 108.78 74.6162 109.933Z" fill="#BF682D" stroke="black" stroke-width="2" stroke-miterlimit="10"/>
<path d="M103.533 115.66C103.244 117.043 103.045 118.909 103.414 121.025C103.513 121.576 103.633 122.088 103.773 122.569" fill="#BF682D"/>
<path d="M103.533 115.66C103.244 117.043 103.045 118.909 103.414 121.025C103.513 121.576 103.633 122.088 103.773 122.569" stroke="black" stroke-width="2" stroke-miterlimit="10" stroke-linecap="round"/>
<path d="M151.346 122.86C150.868 123.652 150.419 124.735 150.489 126.009C150.509 126.34 150.559 126.651 150.628 126.942" fill="#BF682D"/>
<path d="M151.346 122.86C150.868 123.652 150.419 124.735 150.489 126.009C150.509 126.34 150.559 126.651 150.628 126.942" stroke="black" stroke-width="2" stroke-miterlimit="10" stroke-linecap="round"/>
<path d="M122.23 133.179C122.14 134.353 122.22 135.877 122.868 137.482C123.037 137.903 123.227 138.284 123.426 138.625" fill="#BF682D"/>
<path d="M122.23 133.179C122.14 134.353 122.22 135.877 122.868 137.482C123.037 137.903 123.227 138.284 123.426 138.625" stroke="black" stroke-width="2" stroke-miterlimit="10" stroke-linecap="round"/>
<path d="M85.2258 135.215C85.0762 136.619 85.0862 138.495 85.6645 140.56C85.8141 141.102 85.9936 141.593 86.1831 142.055" fill="#BF682D"/>
<path d="M85.2258 135.215C85.0762 136.619 85.0862 138.495 85.6645 140.56C85.8141 141.102 85.9936 141.593 86.1831 142.055" stroke="black" stroke-width="2" stroke-miterlimit="10" stroke-linecap="round"/>
<path d="M59.9781 120.082C56.6676 118.227 47.105 112.38 46.2275 103.535C46.078 101.991 46.2076 100.536 46.5067 99.2026" stroke="black" stroke-width="2" stroke-miterlimit="10" stroke-linecap="round"/>
<path d="M60.028 120.283C54.8329 119.801 44.2333 119.651 35.5182 126.44C34.3217 127.373 33.2547 128.366 32.3074 129.379" stroke="black" stroke-width="2" stroke-miterlimit="10" stroke-linecap="round"/>
<path d="M315.436 247.024C314.26 261.675 306.831 276.588 300.549 276.077C294.277 275.565 289.311 259.65 290.488 244.998C291.664 230.346 298.255 226.616 304.537 227.127C310.809 227.638 316.613 232.372 315.436 247.024Z" fill="#9F072B" stroke="black" stroke-width="2" stroke-miterlimit="10"/>
<path d="M328.858 253.823C324.181 267.753 313.362 280.399 307.399 278.373C301.436 276.347 300.469 259.69 305.146 245.77C309.822 231.841 317.131 229.835 323.094 231.861C329.057 233.886 333.544 239.904 328.858 253.823Z" fill="#9F072B" stroke="black" stroke-width="2" stroke-miterlimit="10"/>
<path d="M334.502 261.796C328.728 275.294 316.932 287.028 311.148 284.531C305.365 282.024 305.734 265.346 311.507 251.848C317.281 238.349 324.72 236.935 330.503 239.442C336.296 241.939 340.275 248.287 334.502 261.796Z" fill="#9F072B" stroke="black" stroke-width="2" stroke-miterlimit="10"/>
<path d="M281.743 249.852C281.434 264.544 287.327 280.138 293.629 280.279C299.931 280.419 306.462 265.075 306.771 250.383C307.08 235.692 300.888 231.299 294.596 231.169C288.304 231.038 282.052 235.16 281.743 249.852Z" fill="#9F072B" stroke="black" stroke-width="2" stroke-miterlimit="10"/>
<path d="M323.922 226.535L322.297 221.661C321 221.661 319.933 221.902 319.096 222.183C313.193 224.209 311.338 231.369 311.099 232.382L316.124 233.505C316.224 233.084 317.46 227.899 321.519 226.746C322.107 226.576 322.915 226.445 323.912 226.565" fill="#402A22"/>
<path d="M323.922 226.535L322.297 221.661C321 221.661 319.933 221.902 319.096 222.183C313.193 224.209 311.338 231.369 311.099 232.382L316.124 233.505C316.224 233.084 317.46 227.899 321.519 226.746C322.107 226.576 322.915 226.445 323.912 226.565" stroke="black" stroke-width="2" stroke-miterlimit="10" stroke-linecap="round"/>
<path d="M322.556 254.274C319.205 269.809 309.094 284.731 302.443 283.277C295.792 281.823 292.741 264.032 296.092 248.498C299.442 232.964 306.701 231.259 313.352 232.713C320.003 234.167 325.906 238.74 322.556 254.274Z" fill="#9F072B" stroke="black" stroke-width="2" stroke-miterlimit="10"/>
<path d="M260.583 275.746C266.985 287.218 268.77 302.031 263.764 304.808C258.759 307.586 247.082 298.25 240.69 286.777C234.289 275.304 237.43 269.217 242.435 266.449C247.431 263.661 254.182 264.273 260.583 275.746Z" fill="#D2A22B" stroke="black" stroke-width="2" stroke-miterlimit="10"/>
<path d="M274.125 274.051C277.505 286.747 275.61 301.569 270.086 303.064C264.562 304.558 255.548 292.664 252.167 279.978C248.787 267.282 253.314 262.127 258.838 260.633C264.353 259.148 270.744 261.365 274.125 274.051Z" fill="#D2A22B" stroke="black" stroke-width="2" stroke-miterlimit="10"/>
<path d="M282.361 277.14C284.704 290.066 281.613 304.708 275.989 305.751C270.365 306.794 262.348 294.218 260.005 281.291C257.662 268.365 262.598 263.581 268.212 262.528C273.835 261.485 280.018 264.213 282.361 277.14Z" fill="#D2A22B" stroke="black" stroke-width="2" stroke-miterlimit="10"/>
<path d="M236.482 294.76C243.562 305.831 255.777 314.456 260.603 311.387C265.429 308.329 262.757 293.647 255.677 282.585C248.598 271.514 241.737 271.363 236.901 274.432C232.085 277.491 229.403 283.698 236.482 294.76Z" fill="#D2A22B" stroke="black" stroke-width="2" stroke-miterlimit="10"/>
<path d="M256.814 256.26L253.165 253.462C252.187 254.114 251.489 254.826 251.001 255.458C247.541 259.931 249.705 266.178 250.014 267.051L254.381 265.356C254.242 264.995 252.606 260.522 255.099 257.624C255.458 257.203 256.006 256.701 256.824 256.29" fill="#402A22"/>
<path d="M256.814 256.26L253.165 253.462C252.187 254.114 251.489 254.826 251.001 255.458C247.541 259.931 249.705 266.178 250.014 267.051L254.381 265.356C254.242 264.995 252.606 260.522 255.099 257.624C255.458 257.203 256.006 256.701 256.824 256.29" stroke="black" stroke-width="2" stroke-miterlimit="10" stroke-linecap="round"/>
<path d="M269.578 277.551C274.773 290.778 274.543 306.934 268.78 309.191C263.016 311.457 251.868 299.774 246.673 286.546C241.478 273.319 246.125 268.415 251.888 266.148C257.652 263.892 264.382 264.323 269.578 277.551Z" fill="#D2A22B" stroke="black" stroke-width="2" stroke-miterlimit="10"/>
<path fill-rule="evenodd" clip-rule="evenodd" d="M187.812 231.48H152.772H187.812ZM205.332 202.848C205.332 211.362 198.471 218.272 189.996 218.272C189.248 218.272 188.52 218.212 187.802 218.111V231.49V240.305H152.762V231.49V218.111C152.044 218.212 151.316 218.272 150.569 218.272C142.103 218.272 135.233 211.372 135.233 202.848C135.233 194.324 142.093 187.424 150.569 187.424C152.034 187.424 153.44 187.635 154.777 188.016C157.718 182.42 163.551 178.609 170.272 178.609C176.993 178.609 182.836 182.42 185.768 188.016C187.104 187.635 188.52 187.424 189.976 187.424C198.471 187.424 205.332 194.334 205.332 202.848Z" fill="white"/>
<path d="M187.812 231.48H152.772M205.332 202.848C205.332 211.362 198.471 218.272 189.996 218.272C189.248 218.272 188.52 218.212 187.802 218.111V231.49V240.305H152.762V231.49V218.111C152.044 218.212 151.316 218.272 150.569 218.272C142.103 218.272 135.233 211.372 135.233 202.848C135.233 194.324 142.093 187.424 150.569 187.424C152.034 187.424 153.44 187.635 154.777 188.016C157.718 182.42 163.551 178.609 170.272 178.609C176.993 178.609 182.836 182.42 185.768 188.016C187.104 187.635 188.52 187.424 189.976 187.424C198.471 187.424 205.332 194.334 205.332 202.848Z" stroke="black" stroke-width="2" stroke-miterlimit="10"/>
</svg>
