<svg width="43" height="38" viewBox="0 0 43 38" fill="none" xmlns="http://www.w3.org/2000/svg">
<path d="M26.2674 6.21053H8.62791M26.2674 6.21053V3.14579C26.2674 1.96158 25.2997 1 24.1078 1H10.7876C9.5957 1 8.62791 1.96158 8.62791 3.14579V6.21053M26.2674 6.21053L27.6309 16.6316M8.62791 6.21053L1 28.4737C2.0107 28.6016 3.59826 28.9332 5.2907 29.8947C7.72686 31.2779 9.0236 33.1963 9.5814 34.1579M8.62791 6.21053C8.94733 15.5279 9.26198 24.8405 9.5814 34.1579M9.5814 34.1579H26.892M42 10L35.3971 11.4211L31.9884 29.7479M40.5698 18.7442V18.3084C40.5698 17.3847 39.8165 16.6316 38.8821 16.6316H25.0947C24.165 16.6316 23.407 17.38 23.407 18.3084V18.7442C23.407 19.6679 24.1602 20.4211 25.0947 20.4211H38.8821C39.8117 20.4211 40.5698 19.6726 40.5698 18.7442ZM36.8845 35.8916L38.6628 20.4211H25.314L27.0922 35.8916C27.1637 36.5216 27.7024 37 28.346 37H35.6307C36.2695 37 36.8083 36.5216 36.8845 35.8916Z" stroke="black" stroke-width="2" stroke-linecap="round" stroke-linejoin="round"/>
</svg>
