<svg width="44" height="36" viewBox="0 0 44 36" fill="none" xmlns="http://www.w3.org/2000/svg">
<path d="M21.132 23.8397C13.264 11.0053 6.6 23.8397 6.6 23.8397M17.604 23.7838C13.4488 17.0039 9.9264 23.7838 9.9264 23.7838M37.008 23.8397C27.6616 9.88922 17.5984 19.169 17.5984 19.169M31.5144 24.0238C25.9872 16.1055 20.0344 21.3732 20.0344 21.3732M21.86 15.9716C13.7736 8.07008 12.1048 18.2372 12.1048 18.2372M39.6232 24.0294C36.8064 9.14705 27.768 16.4236 27.768 16.4236M25.36 15.7651C11.5616 2.27786 8.7112 19.6322 8.7112 19.6322M20.6616 7.47858C20.6616 7.47858 19.4296 6.29 20.6616 5.31905C21.8936 4.3481 23.5736 4.3481 23.0136 2.67405L22.4536 1M25.3376 7.72969C25.3376 7.72969 24.1056 6.54111 25.3376 5.57016C26.5696 4.59921 28.2496 4.59921 27.6896 2.92516L27.1296 1.25111M36.0504 31.6519H7.9496C4.1136 31.6519 1 28.5493 1 24.7269V24.3977H43V24.7269C43 28.5493 39.8864 31.6519 36.0504 31.6519ZM35.72 31.6519H8.28V35H35.72V31.6519Z" stroke="black" stroke-width="2" stroke-linecap="round" stroke-linejoin="round"/>
</svg>
