<svg width="44" height="44" viewBox="0 0 44 44" fill="none" xmlns="http://www.w3.org/2000/svg">
<path d="M15.3399 26.28H5.99998C3.79999 26.28 2 28.0485 2 30.21V42H15.3399V26.28Z" stroke-width="3" stroke-linecap="round" stroke-linejoin="round"/>
<path d="M24.6597 18.42H19.3197C17.1198 18.42 15.3198 20.1885 15.3198 22.35V42H28.6597V22.35C28.6597 20.1885 26.8797 18.42 24.6597 18.42Z" stroke-width="3" stroke-linecap="round" stroke-linejoin="round"/>
<path d="M38 32.175H28.6601V42H42V36.105C42 33.9435 40.2 32.175 38 32.175Z" stroke-width="3" stroke-linecap="round" stroke-linejoin="round"/>
<path d="M23.0399 2.83762L24.0999 4.9205C24.2399 5.21525 24.6199 5.49035 24.9399 5.52965L26.8599 5.84407C28.0799 6.04057 28.3799 6.92478 27.4999 7.76973L25.9999 9.24349C25.7399 9.49894 25.5999 9.97056 25.6799 10.3046L26.0999 12.1124C26.4399 13.5469 25.6599 14.0971 24.3799 13.3504L22.5799 12.3089C22.2599 12.1124 21.7199 12.1124 21.3999 12.3089L19.5999 13.3504C18.3199 14.0971 17.5399 13.5469 17.8799 12.1124L18.2999 10.3046C18.3799 9.97056 18.2399 9.47929 17.9799 9.24349L16.4999 7.7894C15.6199 6.9248 15.8999 6.06018 17.1399 5.86368L19.0599 5.54932C19.3799 5.49037 19.7599 5.21527 19.8999 4.94017L20.9599 2.85723C21.5399 1.71753 22.4599 1.71757 23.0399 2.83762Z" stroke-width="3" stroke-linecap="round" stroke-linejoin="round"/>
</svg>
