<?xml version="1.0" encoding="UTF-8"?>
<svg id="Layer_2" data-name="Layer 2" xmlns="http://www.w3.org/2000/svg" viewBox="0 0 329.61 201.69">
  <defs>
    <style>
      .cls-1 {
        fill: #254934;
      }

      .cls-1, .cls-2, .cls-3, .cls-4, .cls-5 {
        stroke-width: 0px;
      }

      .cls-2 {
        fill: #d4d3d3;
      }

      .cls-3 {
        fill: #9d082b;
      }

      .cls-4 {
        fill: #fff;
      }

      .cls-5 {
        fill: #ef960a;
      }
    </style>
  </defs>
  <g>
    <path class="cls-3" d="m51.16,174.38h53.79v7.54c0,9.59-7.79,17.38-17.38,17.38h-19.02c-9.59,0-17.38-7.79-17.38-17.38v-7.54h0Z"/>
    <rect class="cls-3" x="63.86" y="198.98" width="27.85" height="2.66"/>
  </g>
  <g>
    <rect class="cls-2" x="243.36" y="197.31" width="46.6" height="4.24"/>
    <path class="cls-2" d="m312.39,159.75c4.37-1.47,7.64-2.38,8.21-.59.72,2.27-3.3,5.61-9.22,7.86"/>
    <path class="cls-2" d="m221.87,167.02c-5.92-2.25-9.94-5.59-9.22-7.86.57-1.79,3.85-.88,8.21.59"/>
    <path class="cls-2" d="m311.13,141.05h-88.94c-2.06,0-3.66,1.45-3.43,3.1l4.79,34.32c1.51,10.85,9.83,18.84,19.6,18.84h47.03c9.77,0,18.09-7.99,19.6-18.84l4.79-34.32c.23-1.65-1.37-3.1-3.43-3.1Z"/>
  </g>
  <g>
    <path class="cls-1" d="m275.82,174.44h53.79v7.54c0,9.59-7.79,17.38-17.38,17.38h-19.02c-9.59,0-17.38-7.79-17.38-17.38v-7.54h0Z"/>
    <rect class="cls-1" x="288.52" y="199.04" width="27.85" height="2.66"/>
  </g>
  <rect class="cls-5" x="151.8" y="97.73" width="15.76" height="51.79"/>
  <g>
    <path class="cls-5" d="m129.82,147.72h59.72c4.79,0,8.68,3.89,8.68,8.68v33.57h-77.09v-33.57c0-4.79,3.89-8.68,8.68-8.68Z"/>
    <path class="cls-5" d="m121.19,185.56h76.99c4.79,0,8.68,3.89,8.68,8.68v7.05h-94.36v-7.05c0-4.79,3.89-8.68,8.68-8.68Z"/>
  </g>
  <path class="cls-2" d="m11.24,198.09v-22.25c4.74-.85,8.38-5.86,8.38-11.92H0c0,6.04,3.61,11.03,8.33,11.91v22.28c-3.78.27-6.63,1.44-6.63,2.85h16.57c0-1.46-3.05-2.66-7.03-2.87Z"/>
  <g>
    <path class="cls-5" d="m246.57,12.44c0,41.47-38.13,73.3-56.35,73.3s-9.63-31.83-9.63-73.3"/>
    <path class="cls-4" d="m234.05,21.17c0,29.72-27.33,52.54-40.39,52.54s-6.9-22.81-6.9-52.54"/>
  </g>
  <path class="cls-2" d="m33.4,198.09v-22.25c4.74-.85,8.38-5.86,8.38-11.92h-19.62c0,6.04,3.61,11.03,8.33,11.91v22.28c-3.78.27-6.63,1.44-6.63,2.85h16.57c0-1.46-3.05-2.66-7.03-2.87Z"/>
  <g>
    <path class="cls-5" d="m74.96,11.91c0,41.47,38.13,73.3,56.35,73.3s9.63-31.83,9.63-73.3"/>
    <path class="cls-4" d="m87.47,20.64c0,29.72,27.33,52.54,40.39,52.54,13.06,0,6.9-22.81,6.9-52.54"/>
  </g>
  <path class="cls-5" d="m218.33,0c0,57.85-26.26,104.74-58.64,104.74S101.04,57.85,101.04,0"/>
</svg>