<svg width="50" height="61" viewBox="0 0 50 61" fill="none" xmlns="http://www.w3.org/2000/svg">
<path d="M32.7706 36.2911H17.1479M49 50.0154H5.5283C3.02868 50.0154 1 52.0486 1 54.5538V55.4615C1 57.9668 3.02868 60 5.5283 60H49V50.0154ZM49 50.0154V1H1V52.7385H1.37132M40.5864 23.5652C40.5864 27.3503 37.5253 30.4183 33.7487 30.4183C33.4136 30.4183 33.0875 30.3911 32.7706 30.3457V40.2032H17.1479V30.3457C16.8309 30.3911 16.5049 30.4183 16.1698 30.4183C12.3932 30.4183 9.33208 27.3503 9.33208 23.5652C9.33208 19.7802 12.3932 16.7122 16.1698 16.7122C16.8219 16.7122 17.4468 16.8029 18.0445 16.9754C19.3577 14.4883 21.957 12.8 24.9547 12.8C27.9525 12.8 30.5517 14.4974 31.8649 16.9754C32.4626 16.8029 33.0875 16.7122 33.7396 16.7122C37.5162 16.7122 40.5774 19.7802 40.5774 23.5652H40.5864Z" stroke="white" stroke-width="2" stroke-linejoin="round"/>
</svg>
