<svg width="37" height="44" viewBox="0 0 37 44" fill="none" xmlns="http://www.w3.org/2000/svg">
<path d="M27.3885 38.5386C32.4656 36.1969 36 30.9836 36 24.9182V23.3069H1V24.9182C1 30.8404 4.37307 35.9606 9.26087 38.3739M27.3885 38.5386V43H9.26087V38.3739M27.3885 38.5386C25.5512 39.3908 23.5175 39.8634 21.3647 39.8634H15.6353C13.3492 39.8634 11.1893 39.3263 9.26087 38.3739M4.47826 23.3069C5.43198 18.5949 11.4418 14.9642 18.7139 14.9642C25.986 14.9642 31.9958 18.5949 32.9495 23.3069M21.8135 15.1933L25.7265 1M24.4993 15.7806L30.6353 2.43222M10.2987 20.335L11.3717 19.8552M20.0463 20.6501L21.1192 20.1703M25.2567 20.2849L26.3296 19.8051M15.425 19.0747L16.4979 18.5949" stroke="black" stroke-width="2" stroke-linecap="round" stroke-linejoin="round"/>
</svg>
