<svg width="40" height="38" viewBox="0 0 40 38" fill="none" xmlns="http://www.w3.org/2000/svg">
<path d="M29.6504 32.1822C35.1627 29.6534 39 24.0236 39 17.4735V15.7336H1V17.4735C1 23.8689 4.66219 29.3982 9.96894 32.0043M29.6504 32.1822V37H9.96894V32.0043M29.6504 32.1822C27.6556 33.1024 25.4476 33.6128 23.1102 33.6128H16.8898C14.4077 33.6128 12.0627 33.0328 9.96894 32.0043M19.3186 7.64458C19.4404 7.59045 19.5089 7.55951 19.5089 7.55951C19.5089 7.55951 17.2248 2.91183 19.5089 1.36518C21.793 -0.181469 25.5999 3.68516 25.5999 3.68516C25.5999 3.68516 27.1226 1.36518 31.6908 2.91183C36.2591 4.45848 32.4522 9.87176 32.4522 9.87176C32.4522 9.87176 37.7818 9.87176 38.5432 12.9651C38.802 14.0322 38.467 14.968 37.9112 15.7336M19.3186 7.64458C21.5951 8.09311 23.3158 10.1347 23.3158 12.5784C23.3158 13.777 22.9046 14.8674 22.2194 15.7336M19.3186 7.64458C19.014 7.58271 18.6942 7.55178 18.3669 7.55178C16.6766 7.55178 15.1843 8.41017 14.2935 9.72482M4.52515 15.7336L2.94149 13.1739C1.79183 11.3101 2.34001 8.85097 4.17491 7.67551L7.20517 5.74993C9.04007 4.57448 11.4612 5.13901 12.6109 7.00272L14.2935 9.72482M14.2935 9.72482C13.7377 10.5368 13.418 11.5189 13.418 12.5784C13.418 13.777 13.8291 14.8674 14.5143 15.7336M7.25847 2.13851L6.07834 6.46913M6.07834 6.46913L3.52014 2.13851M6.07834 6.46913L1.23602 5.23181" stroke="black" stroke-width="2" stroke-linecap="round" stroke-linejoin="round"/>
</svg>
