<svg width="24" height="42" viewBox="0 0 24 42" fill="none" xmlns="http://www.w3.org/2000/svg">
<path d="M23 20.1634C23 17.2614 20.713 14.898 17.8837 14.8562V10.6523M23 20.1634V35.6928C23 38.6209 20.6721 41 17.807 41H6.19302C3.32791 41 1 38.6209 1 35.6928V20.1634M23 20.1634C20.3037 20.9059 16.6353 21.6275 12.2558 21.6536C7.63581 21.6797 3.78326 20.932 1 20.1634M1 20.1634C1 17.2353 2.73953 14.8562 5.60465 14.8562V10.6523M4.06977 3.79739C4.06977 2.24967 7.5386 1 11.8209 1C16.1033 1 19.5721 2.24967 19.5721 3.79739M4.06977 3.79739C4.06977 5.3451 7.5386 6.59477 11.8209 6.59477C16.1033 6.59477 19.5721 5.3451 19.5721 3.79739M4.06977 3.79739V8.45621C4.06977 10.2601 7.5386 11.719 11.8209 11.719C16.1033 11.719 19.5721 10.2601 19.5721 8.45621V3.79739M1.12791 33.0314C3.86 33.8 7.64605 34.5477 12.1893 34.5216C16.4921 34.4954 20.0991 33.7739 22.7442 33.0314" stroke="black" stroke-width="2" stroke-linecap="round" stroke-linejoin="round"/>
</svg>
