<svg width="36" height="37" viewBox="0 0 36 37" fill="none" xmlns="http://www.w3.org/2000/svg">
<path d="M25.7902 31.7245C30.5598 29.4804 33.8801 24.4843 33.8801 18.6716V17.1275H1V18.6716C1 24.3471 4.16877 29.2539 8.76051 31.5667M25.7902 31.7245V36H8.76051V31.5667M25.7902 31.7245C24.0641 32.5412 22.1537 32.9941 20.1312 32.9941H14.7489C12.6012 32.9941 10.5722 32.4794 8.76051 31.5667M15.8952 5.11765L16.554 7.17647C17.2128 9.23529 15.2364 9.23529 13.7871 10.4294C12.3377 11.6235 13.7871 13.0853 13.7871 13.0853M21.3895 5.41961L22.0482 7.47843C22.707 9.53725 20.7307 9.53726 19.2813 10.7314C17.832 11.9255 19.2813 13.3873 19.2813 13.3873M24.4528 16.7775L30.3885 2.37255L35 1L29.0709 16.098" stroke="black" stroke-width="2" stroke-linecap="round" stroke-linejoin="round"/>
</svg>
